<svg width="15" height="25" viewBox="0 0 15 25" fill="none" xmlns="http://www.w3.org/2000/svg">
<path d="M14.4448 13.4755L3.31944 24.6006C3.06212 24.8581 2.71863 25 2.35237 25C1.98611 25 1.64262 24.8581 1.38531 24.6006L0.566003 23.7815C0.0328772 23.2478 0.0328772 22.3803 0.566003 21.8474L9.9082 12.5052L0.555637 3.15262C0.298322 2.8951 0.15625 2.55181 0.15625 2.18575C0.15625 1.81929 0.298322 1.476 0.555637 1.21828L1.37494 0.399387C1.63246 0.141869 1.97575 0 2.342 0C2.70826 0 3.05175 0.141869 3.30907 0.399387L14.4448 11.5347C14.7027 11.793 14.8443 12.1379 14.8435 12.5046C14.8443 12.8727 14.7027 13.2174 14.4448 13.4755Z" fill="#8E97B1"/>
</svg>
