<svg width="23" height="25" viewBox="0 0 23 25" fill="none" xmlns="http://www.w3.org/2000/svg">
<path d="M21.7222 25H1.27778C0.93889 25 0.613882 24.8683 0.374252 24.6339C0.134623 24.3995 0 24.0815 0 23.75V1.25C0 0.918479 0.134623 0.600537 0.374252 0.366116C0.613882 0.131696 0.93889 0 1.27778 0H21.7222C22.0611 0 22.3861 0.131696 22.6257 0.366116C22.8654 0.600537 23 0.918479 23 1.25V23.75C23 24.0815 22.8654 24.3995 22.6257 24.6339C22.3861 24.8683 22.0611 25 21.7222 25ZM6.38889 6.25V8.75H16.6111V6.25H6.38889ZM6.38889 11.25V13.75H16.6111V11.25H6.38889ZM6.38889 16.25V18.75H12.7778V16.25H6.38889Z" fill="#6072D7"/>
</svg>
