<svg width="14" height="14" viewBox="0 0 14 14" fill="none" xmlns="http://www.w3.org/2000/svg">
<path d="M12.0312 0H9.74312H9.37499H3.75H3.38187H1.09375C0.49375 0 0 0.49375 0 1.09375V12.0312C0 12.6312 0.49375 13.125 1.09375 13.125H6.09999C5.79374 12.4562 5.62499 11.7187 5.62499 10.9375C5.62499 8.00624 8.00624 5.62499 10.9375 5.62499C11.7187 5.62499 12.4562 5.79374 13.125 6.09999V1.09375C13.125 0.49375 12.6312 0 12.0312 0ZM9.09374 5.58749C9.03124 5.61249 8.96874 5.62499 8.90624 5.62499C8.78749 5.62499 8.67499 5.58124 8.58749 5.49999L6.56249 3.6125L4.5375 5.49999C4.4 5.62499 4.2 5.66249 4.03125 5.58749C3.8625 5.51249 3.75 5.34374 3.75 5.15625V0.937499H9.37499V5.15625C9.37499 5.34374 9.26249 5.51249 9.09374 5.58749V5.58749Z" fill="#BFBFBF"/>
</svg>
