<svg width="378" height="183" viewBox="0 0 378 183" fill="none" xmlns="http://www.w3.org/2000/svg">
<path d="M116.002 78.216C114.754 78.216 113.674 77.946 112.762 77.406C111.862 76.854 111.166 76.092 110.674 75.12C110.182 74.136 109.936 73.002 109.936 71.718C109.936 70.422 110.182 69.288 110.674 68.316C111.166 67.332 111.862 66.564 112.762 66.012C113.674 65.46 114.754 65.184 116.002 65.184C117.478 65.184 118.684 65.544 119.62 66.264C120.556 66.984 121.15 67.992 121.402 69.288H119.278C119.11 68.556 118.75 67.974 118.198 67.542C117.646 67.11 116.908 66.894 115.984 66.894C114.724 66.894 113.728 67.326 112.996 68.19C112.264 69.042 111.898 70.218 111.898 71.718C111.898 73.206 112.264 74.376 112.996 75.228C113.728 76.08 114.724 76.506 115.984 76.506C116.908 76.506 117.646 76.302 118.198 75.894C118.75 75.486 119.11 74.928 119.278 74.22H121.402C121.15 75.468 120.556 76.446 119.62 77.154C118.684 77.862 117.478 78.216 116.002 78.216ZM123.714 78V69.072H125.424L125.586 70.764C125.898 70.176 126.33 69.714 126.882 69.378C127.446 69.03 128.124 68.856 128.916 68.856V70.854H128.394C127.866 70.854 127.392 70.944 126.972 71.124C126.564 71.292 126.234 71.586 125.982 72.006C125.742 72.414 125.622 72.984 125.622 73.716V78H123.714ZM134.768 78.216C133.892 78.216 133.112 78.024 132.428 77.64C131.756 77.244 131.228 76.698 130.844 76.002C130.46 75.306 130.268 74.496 130.268 73.572C130.268 72.636 130.454 71.814 130.826 71.106C131.21 70.398 131.738 69.846 132.41 69.45C133.094 69.054 133.886 68.856 134.786 68.856C135.662 68.856 136.424 69.054 137.072 69.45C137.72 69.834 138.224 70.35 138.584 70.998C138.944 71.646 139.124 72.36 139.124 73.14C139.124 73.26 139.118 73.392 139.106 73.536C139.106 73.668 139.1 73.818 139.088 73.986H132.14C132.2 74.85 132.482 75.51 132.986 75.966C133.502 76.41 134.096 76.632 134.768 76.632C135.308 76.632 135.758 76.512 136.118 76.272C136.49 76.02 136.766 75.684 136.946 75.264H138.854C138.614 76.104 138.134 76.806 137.414 77.37C136.706 77.934 135.824 78.216 134.768 78.216ZM134.768 70.422C134.132 70.422 133.568 70.614 133.076 70.998C132.584 71.37 132.284 71.934 132.176 72.69H137.216C137.18 71.994 136.934 71.442 136.478 71.034C136.022 70.626 135.452 70.422 134.768 70.422ZM144.415 78.216C143.659 78.216 143.035 78.09 142.543 77.838C142.051 77.586 141.685 77.256 141.445 76.848C141.205 76.428 141.085 75.972 141.085 75.48C141.085 74.616 141.421 73.932 142.093 73.428C142.765 72.924 143.725 72.672 144.973 72.672H147.313V72.51C147.313 71.814 147.121 71.292 146.737 70.944C146.365 70.596 145.879 70.422 145.279 70.422C144.751 70.422 144.289 70.554 143.893 70.818C143.509 71.07 143.275 71.448 143.191 71.952H141.283C141.343 71.304 141.559 70.752 141.931 70.296C142.315 69.828 142.795 69.474 143.371 69.234C143.959 68.982 144.601 68.856 145.297 68.856C146.545 68.856 147.511 69.186 148.195 69.846C148.879 70.494 149.221 71.382 149.221 72.51V78H147.565L147.403 76.47C147.151 76.962 146.785 77.376 146.305 77.712C145.825 78.048 145.195 78.216 144.415 78.216ZM144.793 76.668C145.309 76.668 145.741 76.548 146.089 76.308C146.449 76.056 146.725 75.726 146.917 75.318C147.121 74.91 147.247 74.46 147.295 73.968H145.171C144.415 73.968 143.875 74.1 143.551 74.364C143.239 74.628 143.083 74.958 143.083 75.354C143.083 75.762 143.233 76.086 143.533 76.326C143.845 76.554 144.265 76.668 144.793 76.668ZM155.3 78C154.424 78 153.728 77.79 153.212 77.37C152.696 76.938 152.438 76.176 152.438 75.084V70.674H150.908V69.072H152.438L152.672 66.804H154.346V69.072H156.866V70.674H154.346V75.084C154.346 75.576 154.448 75.918 154.652 76.11C154.868 76.29 155.234 76.38 155.75 76.38H156.776V78H155.3ZM163.068 78.216C162.192 78.216 161.412 78.024 160.728 77.64C160.056 77.244 159.528 76.698 159.144 76.002C158.76 75.306 158.568 74.496 158.568 73.572C158.568 72.636 158.754 71.814 159.126 71.106C159.51 70.398 160.038 69.846 160.71 69.45C161.394 69.054 162.186 68.856 163.086 68.856C163.962 68.856 164.724 69.054 165.372 69.45C166.02 69.834 166.524 70.35 166.884 70.998C167.244 71.646 167.424 72.36 167.424 73.14C167.424 73.26 167.418 73.392 167.406 73.536C167.406 73.668 167.4 73.818 167.388 73.986H160.44C160.5 74.85 160.782 75.51 161.286 75.966C161.802 76.41 162.396 76.632 163.068 76.632C163.608 76.632 164.058 76.512 164.418 76.272C164.79 76.02 165.066 75.684 165.246 75.264H167.154C166.914 76.104 166.434 76.806 165.714 77.37C165.006 77.934 164.124 78.216 163.068 78.216ZM163.068 70.422C162.432 70.422 161.868 70.614 161.376 70.998C160.884 71.37 160.584 71.934 160.476 72.69H165.516C165.48 71.994 165.234 71.442 164.778 71.034C164.322 70.626 163.752 70.422 163.068 70.422ZM174.584 78V65.4H176.492L182.81 74.886V65.4H184.718V78H182.81L176.492 68.514V78H174.584ZM191.666 78.216C190.79 78.216 190.01 78.024 189.326 77.64C188.654 77.244 188.126 76.698 187.742 76.002C187.358 75.306 187.166 74.496 187.166 73.572C187.166 72.636 187.352 71.814 187.724 71.106C188.108 70.398 188.636 69.846 189.308 69.45C189.992 69.054 190.784 68.856 191.684 68.856C192.56 68.856 193.322 69.054 193.97 69.45C194.618 69.834 195.122 70.35 195.482 70.998C195.842 71.646 196.022 72.36 196.022 73.14C196.022 73.26 196.016 73.392 196.004 73.536C196.004 73.668 195.998 73.818 195.986 73.986H189.038C189.098 74.85 189.38 75.51 189.884 75.966C190.4 76.41 190.994 76.632 191.666 76.632C192.206 76.632 192.656 76.512 193.016 76.272C193.388 76.02 193.664 75.684 193.844 75.264H195.752C195.512 76.104 195.032 76.806 194.312 77.37C193.604 77.934 192.722 78.216 191.666 78.216ZM191.666 70.422C191.03 70.422 190.466 70.614 189.974 70.998C189.482 71.37 189.182 71.934 189.074 72.69H194.114C194.078 71.994 193.832 71.442 193.376 71.034C192.92 70.626 192.35 70.422 191.666 70.422ZM199.719 78L197.091 69.072H198.999L200.727 75.804L202.671 69.072H204.795L206.739 75.804L208.467 69.072H210.375L207.747 78H205.785L203.733 70.98L201.681 78H199.719ZM222.941 78.216C221.693 78.216 220.601 77.94 219.665 77.388C218.729 76.836 217.997 76.074 217.469 75.102C216.941 74.118 216.677 72.984 216.677 71.7C216.677 70.416 216.941 69.288 217.469 68.316C217.997 67.332 218.729 66.564 219.665 66.012C220.601 65.46 221.693 65.184 222.941 65.184C224.189 65.184 225.281 65.46 226.217 66.012C227.153 66.564 227.879 67.332 228.395 68.316C228.923 69.288 229.187 70.416 229.187 71.7C229.187 72.936 228.941 74.034 228.449 74.994C227.969 75.954 227.297 76.71 226.433 77.262L229.475 80.358H227.063L224.813 77.982C224.225 78.138 223.601 78.216 222.941 78.216ZM222.941 76.506C223.805 76.506 224.555 76.314 225.191 75.93C225.839 75.546 226.343 74.994 226.703 74.274C227.063 73.554 227.243 72.696 227.243 71.7C227.243 70.704 227.063 69.846 226.703 69.126C226.343 68.406 225.839 67.854 225.191 67.47C224.555 67.086 223.805 66.894 222.941 66.894C222.077 66.894 221.321 67.086 220.673 67.47C220.025 67.854 219.521 68.406 219.161 69.126C218.813 69.846 218.639 70.704 218.639 71.7C218.639 72.696 218.813 73.554 219.161 74.274C219.521 74.994 220.025 75.546 220.673 75.93C221.321 76.314 222.077 76.506 222.941 76.506ZM234.962 78.216C233.882 78.216 233.03 77.88 232.406 77.208C231.794 76.536 231.488 75.534 231.488 74.202V69.072H233.396V74.004C233.396 75.732 234.104 76.596 235.52 76.596C236.228 76.596 236.81 76.344 237.266 75.84C237.722 75.336 237.95 74.616 237.95 73.68V69.072H239.858V78H238.166L238.022 76.434C237.746 76.986 237.338 77.424 236.798 77.748C236.27 78.06 235.658 78.216 234.962 78.216ZM246.748 78.216C245.872 78.216 245.092 78.024 244.408 77.64C243.736 77.244 243.208 76.698 242.824 76.002C242.44 75.306 242.248 74.496 242.248 73.572C242.248 72.636 242.434 71.814 242.806 71.106C243.19 70.398 243.718 69.846 244.39 69.45C245.074 69.054 245.866 68.856 246.766 68.856C247.642 68.856 248.404 69.054 249.052 69.45C249.7 69.834 250.204 70.35 250.564 70.998C250.924 71.646 251.104 72.36 251.104 73.14C251.104 73.26 251.098 73.392 251.086 73.536C251.086 73.668 251.08 73.818 251.068 73.986H244.12C244.18 74.85 244.462 75.51 244.966 75.966C245.482 76.41 246.076 76.632 246.748 76.632C247.288 76.632 247.738 76.512 248.098 76.272C248.47 76.02 248.746 75.684 248.926 75.264H250.834C250.594 76.104 250.114 76.806 249.394 77.37C248.686 77.934 247.804 78.216 246.748 78.216ZM246.748 70.422C246.112 70.422 245.548 70.614 245.056 70.998C244.564 71.37 244.264 71.934 244.156 72.69H249.196C249.16 71.994 248.914 71.442 248.458 71.034C248.002 70.626 247.432 70.422 246.748 70.422ZM256.934 78.216C255.806 78.216 254.876 77.94 254.144 77.388C253.412 76.836 252.992 76.104 252.884 75.192H254.81C254.906 75.6 255.134 75.954 255.494 76.254C255.854 76.542 256.328 76.686 256.916 76.686C257.492 76.686 257.912 76.566 258.176 76.326C258.44 76.086 258.572 75.81 258.572 75.498C258.572 75.042 258.386 74.736 258.014 74.58C257.654 74.412 257.15 74.262 256.502 74.13C255.998 74.022 255.494 73.878 254.99 73.698C254.498 73.518 254.084 73.266 253.748 72.942C253.424 72.606 253.262 72.156 253.262 71.592C253.262 70.812 253.562 70.164 254.162 69.648C254.762 69.12 255.602 68.856 256.682 68.856C257.678 68.856 258.482 69.096 259.094 69.576C259.718 70.056 260.084 70.734 260.192 71.61H258.356C258.296 71.226 258.116 70.926 257.816 70.71C257.528 70.494 257.138 70.386 256.646 70.386C256.166 70.386 255.794 70.488 255.53 70.692C255.266 70.884 255.134 71.136 255.134 71.448C255.134 71.76 255.314 72.006 255.674 72.186C256.046 72.366 256.532 72.528 257.132 72.672C257.732 72.804 258.284 72.96 258.788 73.14C259.304 73.308 259.718 73.56 260.03 73.896C260.342 74.232 260.498 74.724 260.498 75.372C260.51 76.188 260.192 76.866 259.544 77.406C258.908 77.946 258.038 78.216 256.934 78.216ZM266.278 78C265.402 78 264.706 77.79 264.19 77.37C263.674 76.938 263.416 76.176 263.416 75.084V70.674H261.886V69.072H263.416L263.65 66.804H265.324V69.072H267.844V70.674H265.324V75.084C265.324 75.576 265.426 75.918 265.63 76.11C265.846 76.29 266.212 76.38 266.728 76.38H267.754V78H266.278Z" fill="#212121"/>
<path d="M1.30063 113V103.2H3.09263V111.6H7.43263V113H1.30063ZM11.9871 113.168C11.3151 113.168 10.7085 113.014 10.1671 112.706C9.63512 112.398 9.21045 111.973 8.89312 111.432C8.58512 110.881 8.43112 110.247 8.43112 109.528C8.43112 108.809 8.58978 108.179 8.90712 107.638C9.22445 107.087 9.64912 106.658 10.1811 106.35C10.7225 106.042 11.3291 105.888 12.0011 105.888C12.6638 105.888 13.2611 106.042 13.7931 106.35C14.3345 106.658 14.7591 107.087 15.0671 107.638C15.3845 108.179 15.5431 108.809 15.5431 109.528C15.5431 110.247 15.3845 110.881 15.0671 111.432C14.7591 111.973 14.3345 112.398 13.7931 112.706C13.2518 113.014 12.6498 113.168 11.9871 113.168ZM11.9871 111.614C12.4538 111.614 12.8598 111.441 13.2051 111.096C13.5505 110.741 13.7231 110.219 13.7231 109.528C13.7231 108.837 13.5505 108.319 13.2051 107.974C12.8598 107.619 12.4585 107.442 12.0011 107.442C11.5251 107.442 11.1145 107.619 10.7691 107.974C10.4331 108.319 10.2651 108.837 10.2651 109.528C10.2651 110.219 10.4331 110.741 10.7691 111.096C11.1145 111.441 11.5205 111.614 11.9871 111.614ZM17.1454 113V106.056H18.7414L18.9094 107.358C19.1614 106.91 19.502 106.555 19.9314 106.294C20.37 106.023 20.8834 105.888 21.4714 105.888V107.778H20.9674C20.5754 107.778 20.2254 107.839 19.9174 107.96C19.6094 108.081 19.3667 108.291 19.1894 108.59C19.0214 108.889 18.9374 109.304 18.9374 109.836V113H17.1454ZM25.9471 113.168C25.2471 113.168 24.6264 113.019 24.0851 112.72C23.5438 112.421 23.1191 112.001 22.8111 111.46C22.5031 110.919 22.3491 110.293 22.3491 109.584C22.3491 108.865 22.4984 108.226 22.7971 107.666C23.1051 107.106 23.5251 106.672 24.0571 106.364C24.5984 106.047 25.2331 105.888 25.9611 105.888C26.6424 105.888 27.2444 106.037 27.7671 106.336C28.2898 106.635 28.6958 107.045 28.9851 107.568C29.2838 108.081 29.4331 108.655 29.4331 109.29C29.4331 109.393 29.4284 109.5 29.4191 109.612C29.4191 109.724 29.4144 109.841 29.4051 109.962H24.1271C24.1644 110.503 24.3511 110.928 24.6871 111.236C25.0324 111.544 25.4478 111.698 25.9331 111.698C26.2971 111.698 26.6004 111.619 26.8431 111.46C27.0951 111.292 27.2818 111.077 27.4031 110.816H29.2231C29.0924 111.255 28.8731 111.656 28.5651 112.02C28.2664 112.375 27.8931 112.655 27.4451 112.86C27.0064 113.065 26.5071 113.168 25.9471 113.168ZM25.9611 107.344C25.5224 107.344 25.1351 107.47 24.7991 107.722C24.4631 107.965 24.2484 108.338 24.1551 108.842H27.6131C27.5851 108.385 27.4171 108.021 27.1091 107.75C26.8011 107.479 26.4184 107.344 25.9611 107.344ZM30.9403 113V106.056H32.5223L32.6763 106.994C32.9003 106.658 33.1943 106.392 33.5583 106.196C33.9316 105.991 34.3609 105.888 34.8463 105.888C35.9196 105.888 36.6803 106.303 37.1283 107.134C37.3803 106.751 37.7163 106.448 38.1363 106.224C38.5656 106 39.0323 105.888 39.5363 105.888C40.4416 105.888 41.1369 106.159 41.6223 106.7C42.1076 107.241 42.3503 108.035 42.3503 109.08V113H40.5583V109.248C40.5583 108.651 40.4416 108.193 40.2083 107.876C39.9843 107.559 39.6343 107.4 39.1583 107.4C38.6729 107.4 38.2809 107.577 37.9823 107.932C37.6929 108.287 37.5483 108.781 37.5483 109.416V113H35.7563V109.248C35.7563 108.651 35.6396 108.193 35.4063 107.876C35.1729 107.559 34.8136 107.4 34.3283 107.4C33.8523 107.4 33.4649 107.577 33.1663 107.932C32.8769 108.287 32.7323 108.781 32.7323 109.416V113H30.9403ZM48.3535 104.978C48.0269 104.978 47.7562 104.88 47.5415 104.684C47.3362 104.488 47.2335 104.241 47.2335 103.942C47.2335 103.643 47.3362 103.401 47.5415 103.214C47.7562 103.018 48.0269 102.92 48.3535 102.92C48.6802 102.92 48.9462 103.018 49.1515 103.214C49.3662 103.401 49.4735 103.643 49.4735 103.942C49.4735 104.241 49.3662 104.488 49.1515 104.684C48.9462 104.88 48.6802 104.978 48.3535 104.978ZM47.4575 113V106.056H49.2495V113H47.4575ZM51.12 116.08V106.056H52.716L52.912 107.05C53.136 106.742 53.43 106.471 53.794 106.238C54.1673 106.005 54.648 105.888 55.236 105.888C55.8893 105.888 56.4726 106.047 56.986 106.364C57.4993 106.681 57.9053 107.115 58.204 107.666C58.5026 108.217 58.652 108.842 58.652 109.542C58.652 110.242 58.5026 110.867 58.204 111.418C57.9053 111.959 57.4993 112.389 56.986 112.706C56.4726 113.014 55.8893 113.168 55.236 113.168C54.7133 113.168 54.256 113.07 53.864 112.874C53.472 112.678 53.1546 112.403 52.912 112.048V116.08H51.12ZM54.858 111.6C55.4273 111.6 55.8986 111.409 56.272 111.026C56.6453 110.643 56.832 110.149 56.832 109.542C56.832 108.935 56.6453 108.436 56.272 108.044C55.8986 107.652 55.4273 107.456 54.858 107.456C54.2793 107.456 53.8033 107.652 53.43 108.044C53.066 108.427 52.884 108.921 52.884 109.528C52.884 110.135 53.066 110.634 53.43 111.026C53.8033 111.409 54.2793 111.6 54.858 111.6ZM63.1228 113.168C62.5068 113.168 61.9654 113.07 61.4988 112.874C61.0321 112.669 60.6588 112.389 60.3788 112.034C60.0988 111.679 59.9308 111.269 59.8748 110.802H61.6808C61.7368 111.073 61.8861 111.306 62.1288 111.502C62.3808 111.689 62.7028 111.782 63.0948 111.782C63.4868 111.782 63.7714 111.703 63.9488 111.544C64.1354 111.385 64.2288 111.203 64.2288 110.998C64.2288 110.699 64.0981 110.499 63.8368 110.396C63.5754 110.284 63.2114 110.177 62.7448 110.074C62.4461 110.009 62.1428 109.929 61.8348 109.836C61.5268 109.743 61.2421 109.626 60.9808 109.486C60.7288 109.337 60.5234 109.15 60.3648 108.926C60.2061 108.693 60.1268 108.408 60.1268 108.072C60.1268 107.456 60.3694 106.938 60.8548 106.518C61.3494 106.098 62.0401 105.888 62.9268 105.888C63.7481 105.888 64.4014 106.079 64.8868 106.462C65.3814 106.845 65.6754 107.372 65.7688 108.044H64.0748C63.9721 107.531 63.5848 107.274 62.9128 107.274C62.5768 107.274 62.3154 107.339 62.1288 107.47C61.9514 107.601 61.8628 107.764 61.8628 107.96C61.8628 108.165 61.9981 108.329 62.2688 108.45C62.5394 108.571 62.8988 108.683 63.3468 108.786C63.8321 108.898 64.2754 109.024 64.6768 109.164C65.0874 109.295 65.4141 109.495 65.6568 109.766C65.8994 110.027 66.0208 110.405 66.0208 110.9C66.0301 111.329 65.9181 111.717 65.6848 112.062C65.4514 112.407 65.1154 112.678 64.6768 112.874C64.2381 113.07 63.7201 113.168 63.1228 113.168ZM70.2122 113.168C69.3442 113.168 68.6722 112.897 68.1962 112.356C67.7296 111.815 67.4962 111.021 67.4962 109.976V106.056H69.2742V109.808C69.2742 110.405 69.3956 110.863 69.6382 111.18C69.8809 111.497 70.2636 111.656 70.7862 111.656C71.2809 111.656 71.6869 111.479 72.0042 111.124C72.3309 110.769 72.4942 110.275 72.4942 109.64V106.056H74.2862V113H72.7042L72.5642 111.824C72.3496 112.235 72.0369 112.561 71.6262 112.804C71.2249 113.047 70.7536 113.168 70.2122 113.168ZM76.1258 113V106.056H77.7078L77.8618 106.994C78.0858 106.658 78.3798 106.392 78.7438 106.196C79.1172 105.991 79.5465 105.888 80.0318 105.888C81.1052 105.888 81.8658 106.303 82.3138 107.134C82.5658 106.751 82.9018 106.448 83.3218 106.224C83.7512 106 84.2178 105.888 84.7218 105.888C85.6272 105.888 86.3225 106.159 86.8078 106.7C87.2932 107.241 87.5358 108.035 87.5358 109.08V113H85.7438V109.248C85.7438 108.651 85.6272 108.193 85.3938 107.876C85.1698 107.559 84.8198 107.4 84.3438 107.4C83.8585 107.4 83.4665 107.577 83.1678 107.932C82.8785 108.287 82.7338 108.781 82.7338 109.416V113H80.9418V109.248C80.9418 108.651 80.8252 108.193 80.5918 107.876C80.3585 107.559 79.9992 107.4 79.5138 107.4C79.0378 107.4 78.6505 107.577 78.3518 107.932C78.0625 108.287 77.9178 108.781 77.9178 109.416V113H76.1258ZM95.7651 113.168C95.1118 113.168 94.5284 113.009 94.0151 112.692C93.5018 112.375 93.0958 111.941 92.7971 111.39C92.4984 110.839 92.3491 110.214 92.3491 109.514C92.3491 108.814 92.4984 108.193 92.7971 107.652C93.0958 107.101 93.5018 106.672 94.0151 106.364C94.5284 106.047 95.1118 105.888 95.7651 105.888C96.2878 105.888 96.7451 105.986 97.1371 106.182C97.5291 106.378 97.8464 106.653 98.0891 107.008V102.92H99.8811V113H98.2851L98.0891 112.006C97.8651 112.314 97.5664 112.585 97.1931 112.818C96.8291 113.051 96.3531 113.168 95.7651 113.168ZM96.1431 111.6C96.7218 111.6 97.1931 111.409 97.5571 111.026C97.9304 110.634 98.1171 110.135 98.1171 109.528C98.1171 108.921 97.9304 108.427 97.5571 108.044C97.1931 107.652 96.7218 107.456 96.1431 107.456C95.5738 107.456 95.1024 107.647 94.7291 108.03C94.3558 108.413 94.1691 108.907 94.1691 109.514C94.1691 110.121 94.3558 110.62 94.7291 111.012C95.1024 111.404 95.5738 111.6 96.1431 111.6ZM105.038 113.168C104.366 113.168 103.759 113.014 103.218 112.706C102.686 112.398 102.261 111.973 101.944 111.432C101.636 110.881 101.482 110.247 101.482 109.528C101.482 108.809 101.641 108.179 101.958 107.638C102.275 107.087 102.7 106.658 103.232 106.35C103.773 106.042 104.38 105.888 105.052 105.888C105.715 105.888 106.312 106.042 106.844 106.35C107.385 106.658 107.81 107.087 108.118 107.638C108.435 108.179 108.594 108.809 108.594 109.528C108.594 110.247 108.435 110.881 108.118 111.432C107.81 111.973 107.385 112.398 106.844 112.706C106.303 113.014 105.701 113.168 105.038 113.168ZM105.038 111.614C105.505 111.614 105.911 111.441 106.256 111.096C106.601 110.741 106.774 110.219 106.774 109.528C106.774 108.837 106.601 108.319 106.256 107.974C105.911 107.619 105.509 107.442 105.052 107.442C104.576 107.442 104.165 107.619 103.82 107.974C103.484 108.319 103.316 108.837 103.316 109.528C103.316 110.219 103.484 110.741 103.82 111.096C104.165 111.441 104.571 111.614 105.038 111.614ZM110.196 113V102.92H111.988V113H110.196ZM117.151 113.168C116.479 113.168 115.873 113.014 115.331 112.706C114.799 112.398 114.375 111.973 114.057 111.432C113.749 110.881 113.595 110.247 113.595 109.528C113.595 108.809 113.754 108.179 114.071 107.638C114.389 107.087 114.813 106.658 115.345 106.35C115.887 106.042 116.493 105.888 117.165 105.888C117.828 105.888 118.425 106.042 118.957 106.35C119.499 106.658 119.923 107.087 120.231 107.638C120.549 108.179 120.707 108.809 120.707 109.528C120.707 110.247 120.549 110.881 120.231 111.432C119.923 111.973 119.499 112.398 118.957 112.706C118.416 113.014 117.814 113.168 117.151 113.168ZM117.151 111.614C117.618 111.614 118.024 111.441 118.369 111.096C118.715 110.741 118.887 110.219 118.887 109.528C118.887 108.837 118.715 108.319 118.369 107.974C118.024 107.619 117.623 107.442 117.165 107.442C116.689 107.442 116.279 107.619 115.933 107.974C115.597 108.319 115.429 108.837 115.429 109.528C115.429 110.219 115.597 110.741 115.933 111.096C116.279 111.441 116.685 111.614 117.151 111.614ZM122.309 113V106.056H123.905L124.073 107.358C124.325 106.91 124.666 106.555 125.095 106.294C125.534 106.023 126.047 105.888 126.635 105.888V107.778H126.131C125.739 107.778 125.389 107.839 125.081 107.96C124.773 108.081 124.531 108.291 124.353 108.59C124.185 108.889 124.101 109.304 124.101 109.836V113H122.309ZM134.066 113.168C133.45 113.168 132.909 113.07 132.442 112.874C131.975 112.669 131.602 112.389 131.322 112.034C131.042 111.679 130.874 111.269 130.818 110.802H132.624C132.68 111.073 132.829 111.306 133.072 111.502C133.324 111.689 133.646 111.782 134.038 111.782C134.43 111.782 134.715 111.703 134.892 111.544C135.079 111.385 135.172 111.203 135.172 110.998C135.172 110.699 135.041 110.499 134.78 110.396C134.519 110.284 134.155 110.177 133.688 110.074C133.389 110.009 133.086 109.929 132.778 109.836C132.47 109.743 132.185 109.626 131.924 109.486C131.672 109.337 131.467 109.15 131.308 108.926C131.149 108.693 131.07 108.408 131.07 108.072C131.07 107.456 131.313 106.938 131.798 106.518C132.293 106.098 132.983 105.888 133.87 105.888C134.691 105.888 135.345 106.079 135.83 106.462C136.325 106.845 136.619 107.372 136.712 108.044H135.018C134.915 107.531 134.528 107.274 133.856 107.274C133.52 107.274 133.259 107.339 133.072 107.47C132.895 107.601 132.806 107.764 132.806 107.96C132.806 108.165 132.941 108.329 133.212 108.45C133.483 108.571 133.842 108.683 134.29 108.786C134.775 108.898 135.219 109.024 135.62 109.164C136.031 109.295 136.357 109.495 136.6 109.766C136.843 110.027 136.964 110.405 136.964 110.9C136.973 111.329 136.861 111.717 136.628 112.062C136.395 112.407 136.059 112.678 135.62 112.874C135.181 113.07 134.663 113.168 134.066 113.168ZM139.518 104.978C139.191 104.978 138.92 104.88 138.706 104.684C138.5 104.488 138.398 104.241 138.398 103.942C138.398 103.643 138.5 103.401 138.706 103.214C138.92 103.018 139.191 102.92 139.518 102.92C139.844 102.92 140.11 103.018 140.316 103.214C140.53 103.401 140.638 103.643 140.638 103.942C140.638 104.241 140.53 104.488 140.316 104.684C140.11 104.88 139.844 104.978 139.518 104.978ZM138.622 113V106.056H140.414V113H138.622ZM145.378 113C144.65 113 144.067 112.823 143.628 112.468C143.189 112.113 142.97 111.483 142.97 110.578V107.554H141.78V106.056H142.97L143.18 104.194H144.762V106.056H146.638V107.554H144.762V110.592C144.762 110.928 144.832 111.161 144.972 111.292C145.121 111.413 145.373 111.474 145.728 111.474H146.596V113H145.378ZM153.907 113.168C153.309 113.168 152.819 113.075 152.437 112.888C152.054 112.692 151.769 112.435 151.583 112.118C151.396 111.801 151.303 111.451 151.303 111.068C151.303 110.424 151.555 109.901 152.059 109.5C152.563 109.099 153.319 108.898 154.327 108.898H156.091V108.73C156.091 108.254 155.955 107.904 155.685 107.68C155.414 107.456 155.078 107.344 154.677 107.344C154.313 107.344 153.995 107.433 153.725 107.61C153.454 107.778 153.286 108.03 153.221 108.366H151.471C151.517 107.862 151.685 107.423 151.975 107.05C152.273 106.677 152.656 106.392 153.123 106.196C153.589 105.991 154.112 105.888 154.691 105.888C155.68 105.888 156.459 106.135 157.029 106.63C157.598 107.125 157.883 107.825 157.883 108.73V113H156.357L156.189 111.88C155.983 112.253 155.694 112.561 155.321 112.804C154.957 113.047 154.485 113.168 153.907 113.168ZM154.313 111.768C154.826 111.768 155.223 111.6 155.503 111.264C155.792 110.928 155.974 110.513 156.049 110.018H154.523C154.047 110.018 153.706 110.107 153.501 110.284C153.295 110.452 153.193 110.662 153.193 110.914C153.193 111.185 153.295 111.395 153.501 111.544C153.706 111.693 153.977 111.768 154.313 111.768ZM159.593 113V106.056H161.175L161.329 106.994C161.553 106.658 161.847 106.392 162.211 106.196C162.584 105.991 163.013 105.888 163.499 105.888C164.572 105.888 165.333 106.303 165.781 107.134C166.033 106.751 166.369 106.448 166.789 106.224C167.218 106 167.685 105.888 168.189 105.888C169.094 105.888 169.789 106.159 170.275 106.7C170.76 107.241 171.003 108.035 171.003 109.08V113H169.211V109.248C169.211 108.651 169.094 108.193 168.861 107.876C168.637 107.559 168.287 107.4 167.811 107.4C167.325 107.4 166.933 107.577 166.635 107.932C166.345 108.287 166.201 108.781 166.201 109.416V113H164.409V109.248C164.409 108.651 164.292 108.193 164.059 107.876C163.825 107.559 163.466 107.4 162.981 107.4C162.505 107.4 162.117 107.577 161.819 107.932C161.529 108.287 161.385 108.781 161.385 109.416V113H159.593ZM176.078 113.168C175.378 113.168 174.757 113.019 174.216 112.72C173.675 112.421 173.25 112.001 172.942 111.46C172.634 110.919 172.48 110.293 172.48 109.584C172.48 108.865 172.629 108.226 172.928 107.666C173.236 107.106 173.656 106.672 174.188 106.364C174.729 106.047 175.364 105.888 176.092 105.888C176.773 105.888 177.375 106.037 177.898 106.336C178.421 106.635 178.827 107.045 179.116 107.568C179.415 108.081 179.564 108.655 179.564 109.29C179.564 109.393 179.559 109.5 179.55 109.612C179.55 109.724 179.545 109.841 179.536 109.962H174.258C174.295 110.503 174.482 110.928 174.818 111.236C175.163 111.544 175.579 111.698 176.064 111.698C176.428 111.698 176.731 111.619 176.974 111.46C177.226 111.292 177.413 111.077 177.534 110.816H179.354C179.223 111.255 179.004 111.656 178.696 112.02C178.397 112.375 178.024 112.655 177.576 112.86C177.137 113.065 176.638 113.168 176.078 113.168ZM176.092 107.344C175.653 107.344 175.266 107.47 174.93 107.722C174.594 107.965 174.379 108.338 174.286 108.842H177.744C177.716 108.385 177.548 108.021 177.24 107.75C176.932 107.479 176.549 107.344 176.092 107.344ZM184.042 113C183.314 113 182.731 112.823 182.292 112.468C181.853 112.113 181.634 111.483 181.634 110.578V107.554H180.444V106.056H181.634L181.844 104.194H183.426V106.056H185.302V107.554H183.426V110.592C183.426 110.928 183.496 111.161 183.636 111.292C183.785 111.413 184.037 111.474 184.392 111.474H185.26V113H184.042ZM186.496 114.624L187.294 111.138H189.03L187.672 114.624H186.496ZM197.188 113.168C196.479 113.168 195.853 113.014 195.312 112.706C194.771 112.398 194.341 111.969 194.024 111.418C193.716 110.867 193.562 110.237 193.562 109.528C193.562 108.819 193.716 108.189 194.024 107.638C194.341 107.087 194.771 106.658 195.312 106.35C195.853 106.042 196.479 105.888 197.188 105.888C198.075 105.888 198.821 106.121 199.428 106.588C200.035 107.045 200.422 107.68 200.59 108.492H198.7C198.607 108.156 198.42 107.895 198.14 107.708C197.869 107.512 197.547 107.414 197.174 107.414C196.679 107.414 196.259 107.601 195.914 107.974C195.569 108.347 195.396 108.865 195.396 109.528C195.396 110.191 195.569 110.709 195.914 111.082C196.259 111.455 196.679 111.642 197.174 111.642C197.547 111.642 197.869 111.549 198.14 111.362C198.42 111.175 198.607 110.909 198.7 110.564H200.59C200.422 111.348 200.035 111.978 199.428 112.454C198.821 112.93 198.075 113.168 197.188 113.168ZM205.513 113.168C204.841 113.168 204.234 113.014 203.693 112.706C203.161 112.398 202.736 111.973 202.419 111.432C202.111 110.881 201.957 110.247 201.957 109.528C201.957 108.809 202.115 108.179 202.433 107.638C202.75 107.087 203.175 106.658 203.707 106.35C204.248 106.042 204.855 105.888 205.527 105.888C206.189 105.888 206.787 106.042 207.319 106.35C207.86 106.658 208.285 107.087 208.593 107.638C208.91 108.179 209.069 108.809 209.069 109.528C209.069 110.247 208.91 110.881 208.593 111.432C208.285 111.973 207.86 112.398 207.319 112.706C206.777 113.014 206.175 113.168 205.513 113.168ZM205.513 111.614C205.979 111.614 206.385 111.441 206.731 111.096C207.076 110.741 207.249 110.219 207.249 109.528C207.249 108.837 207.076 108.319 206.731 107.974C206.385 107.619 205.984 107.442 205.527 107.442C205.051 107.442 204.64 107.619 204.295 107.974C203.959 108.319 203.791 108.837 203.791 109.528C203.791 110.219 203.959 110.741 204.295 111.096C204.64 111.441 205.046 111.614 205.513 111.614ZM210.671 113V106.056H212.253L212.393 107.232C212.607 106.821 212.915 106.495 213.317 106.252C213.727 106.009 214.208 105.888 214.759 105.888C215.617 105.888 216.285 106.159 216.761 106.7C217.237 107.241 217.475 108.035 217.475 109.08V113H215.683V109.248C215.683 108.651 215.561 108.193 215.319 107.876C215.076 107.559 214.698 107.4 214.185 107.4C213.681 107.4 213.265 107.577 212.939 107.932C212.621 108.287 212.463 108.781 212.463 109.416V113H210.671ZM222.058 113.168C221.442 113.168 220.901 113.07 220.434 112.874C219.968 112.669 219.594 112.389 219.314 112.034C219.034 111.679 218.866 111.269 218.81 110.802H220.616C220.672 111.073 220.822 111.306 221.064 111.502C221.316 111.689 221.638 111.782 222.03 111.782C222.422 111.782 222.707 111.703 222.884 111.544C223.071 111.385 223.164 111.203 223.164 110.998C223.164 110.699 223.034 110.499 222.772 110.396C222.511 110.284 222.147 110.177 221.68 110.074C221.382 110.009 221.078 109.929 220.77 109.836C220.462 109.743 220.178 109.626 219.916 109.486C219.664 109.337 219.459 109.15 219.3 108.926C219.142 108.693 219.062 108.408 219.062 108.072C219.062 107.456 219.305 106.938 219.79 106.518C220.285 106.098 220.976 105.888 221.862 105.888C222.684 105.888 223.337 106.079 223.822 106.462C224.317 106.845 224.611 107.372 224.704 108.044H223.01C222.908 107.531 222.52 107.274 221.848 107.274C221.512 107.274 221.251 107.339 221.064 107.47C220.887 107.601 220.798 107.764 220.798 107.96C220.798 108.165 220.934 108.329 221.204 108.45C221.475 108.571 221.834 108.683 222.282 108.786C222.768 108.898 223.211 109.024 223.612 109.164C224.023 109.295 224.35 109.495 224.592 109.766C224.835 110.027 224.956 110.405 224.956 110.9C224.966 111.329 224.854 111.717 224.62 112.062C224.387 112.407 224.051 112.678 223.612 112.874C223.174 113.07 222.656 113.168 222.058 113.168ZM229.918 113.168C229.218 113.168 228.597 113.019 228.056 112.72C227.514 112.421 227.09 112.001 226.782 111.46C226.474 110.919 226.32 110.293 226.32 109.584C226.32 108.865 226.469 108.226 226.768 107.666C227.076 107.106 227.496 106.672 228.028 106.364C228.569 106.047 229.204 105.888 229.932 105.888C230.613 105.888 231.215 106.037 231.738 106.336C232.26 106.635 232.666 107.045 232.956 107.568C233.254 108.081 233.404 108.655 233.404 109.29C233.404 109.393 233.399 109.5 233.39 109.612C233.39 109.724 233.385 109.841 233.376 109.962H228.098C228.135 110.503 228.322 110.928 228.658 111.236C229.003 111.544 229.418 111.698 229.904 111.698C230.268 111.698 230.571 111.619 230.814 111.46C231.066 111.292 231.252 111.077 231.374 110.816H233.194C233.063 111.255 232.844 111.656 232.536 112.02C232.237 112.375 231.864 112.655 231.416 112.86C230.977 113.065 230.478 113.168 229.918 113.168ZM229.932 107.344C229.493 107.344 229.106 107.47 228.77 107.722C228.434 107.965 228.219 108.338 228.126 108.842H231.584C231.556 108.385 231.388 108.021 231.08 107.75C230.772 107.479 230.389 107.344 229.932 107.344ZM238.313 113.168C237.604 113.168 236.978 113.014 236.437 112.706C235.896 112.398 235.466 111.969 235.149 111.418C234.841 110.867 234.687 110.237 234.687 109.528C234.687 108.819 234.841 108.189 235.149 107.638C235.466 107.087 235.896 106.658 236.437 106.35C236.978 106.042 237.604 105.888 238.313 105.888C239.2 105.888 239.946 106.121 240.553 106.588C241.16 107.045 241.547 107.68 241.715 108.492H239.825C239.732 108.156 239.545 107.895 239.265 107.708C238.994 107.512 238.672 107.414 238.299 107.414C237.804 107.414 237.384 107.601 237.039 107.974C236.694 108.347 236.521 108.865 236.521 109.528C236.521 110.191 236.694 110.709 237.039 111.082C237.384 111.455 237.804 111.642 238.299 111.642C238.672 111.642 238.994 111.549 239.265 111.362C239.545 111.175 239.732 110.909 239.825 110.564H241.715C241.547 111.348 241.16 111.978 240.553 112.454C239.946 112.93 239.2 113.168 238.313 113.168ZM246.304 113C245.576 113 244.992 112.823 244.554 112.468C244.115 112.113 243.896 111.483 243.896 110.578V107.554H242.706V106.056H243.896L244.106 104.194H245.688V106.056H247.564V107.554H245.688V110.592C245.688 110.928 245.758 111.161 245.898 111.292C246.047 111.413 246.299 111.474 246.654 111.474H247.522V113H246.304ZM252.299 113.168C251.599 113.168 250.978 113.019 250.437 112.72C249.895 112.421 249.471 112.001 249.163 111.46C248.855 110.919 248.701 110.293 248.701 109.584C248.701 108.865 248.85 108.226 249.149 107.666C249.457 107.106 249.877 106.672 250.409 106.364C250.95 106.047 251.585 105.888 252.313 105.888C252.994 105.888 253.596 106.037 254.119 106.336C254.641 106.635 255.047 107.045 255.337 107.568C255.635 108.081 255.785 108.655 255.785 109.29C255.785 109.393 255.78 109.5 255.771 109.612C255.771 109.724 255.766 109.841 255.757 109.962H250.479C250.516 110.503 250.703 110.928 251.039 111.236C251.384 111.544 251.799 111.698 252.285 111.698C252.649 111.698 252.952 111.619 253.195 111.46C253.447 111.292 253.633 111.077 253.755 110.816H255.575C255.444 111.255 255.225 111.656 254.917 112.02C254.618 112.375 254.245 112.655 253.797 112.86C253.358 113.065 252.859 113.168 252.299 113.168ZM252.313 107.344C251.874 107.344 251.487 107.47 251.151 107.722C250.815 107.965 250.6 108.338 250.507 108.842H253.965C253.937 108.385 253.769 108.021 253.461 107.75C253.153 107.479 252.77 107.344 252.313 107.344ZM260.263 113C259.535 113 258.951 112.823 258.513 112.468C258.074 112.113 257.855 111.483 257.855 110.578V107.554H256.665V106.056H257.855L258.065 104.194H259.647V106.056H261.523V107.554H259.647V110.592C259.647 110.928 259.717 111.161 259.857 111.292C260.006 111.413 260.258 111.474 260.613 111.474H261.481V113H260.263ZM265.665 113.168C264.797 113.168 264.125 112.897 263.649 112.356C263.183 111.815 262.949 111.021 262.949 109.976V106.056H264.727V109.808C264.727 110.405 264.849 110.863 265.091 111.18C265.334 111.497 265.717 111.656 266.239 111.656C266.734 111.656 267.14 111.479 267.457 111.124C267.784 110.769 267.947 110.275 267.947 109.64V106.056H269.739V113H268.157L268.017 111.824C267.803 112.235 267.49 112.561 267.079 112.804C266.678 113.047 266.207 113.168 265.665 113.168ZM271.579 113V106.056H273.175L273.343 107.358C273.595 106.91 273.936 106.555 274.365 106.294C274.804 106.023 275.317 105.888 275.905 105.888V107.778H275.401C275.009 107.778 274.659 107.839 274.351 107.96C274.043 108.081 273.8 108.291 273.623 108.59C273.455 108.889 273.371 109.304 273.371 109.836V113H271.579ZM282.86 113.168C282.262 113.168 281.772 113.075 281.39 112.888C281.007 112.692 280.722 112.435 280.536 112.118C280.349 111.801 280.256 111.451 280.256 111.068C280.256 110.424 280.508 109.901 281.012 109.5C281.516 109.099 282.272 108.898 283.28 108.898H285.044V108.73C285.044 108.254 284.908 107.904 284.638 107.68C284.367 107.456 284.031 107.344 283.63 107.344C283.266 107.344 282.948 107.433 282.678 107.61C282.407 107.778 282.239 108.03 282.174 108.366H280.424C280.47 107.862 280.638 107.423 280.928 107.05C281.226 106.677 281.609 106.392 282.076 106.196C282.542 105.991 283.065 105.888 283.644 105.888C284.633 105.888 285.412 106.135 285.982 106.63C286.551 107.125 286.836 107.825 286.836 108.73V113H285.31L285.142 111.88C284.936 112.253 284.647 112.561 284.274 112.804C283.91 113.047 283.438 113.168 282.86 113.168ZM283.266 111.768C283.779 111.768 284.176 111.6 284.456 111.264C284.745 110.928 284.927 110.513 285.002 110.018H283.476C283 110.018 282.659 110.107 282.454 110.284C282.248 110.452 282.146 110.662 282.146 110.914C282.146 111.185 282.248 111.395 282.454 111.544C282.659 111.693 282.93 111.768 283.266 111.768ZM291.738 113.168C291.084 113.168 290.501 113.009 289.988 112.692C289.474 112.375 289.068 111.941 288.77 111.39C288.471 110.839 288.322 110.214 288.322 109.514C288.322 108.814 288.471 108.193 288.77 107.652C289.068 107.101 289.474 106.672 289.988 106.364C290.501 106.047 291.084 105.888 291.738 105.888C292.26 105.888 292.718 105.986 293.11 106.182C293.502 106.378 293.819 106.653 294.062 107.008V102.92H295.854V113H294.258L294.062 112.006C293.838 112.314 293.539 112.585 293.166 112.818C292.802 113.051 292.326 113.168 291.738 113.168ZM292.116 111.6C292.694 111.6 293.166 111.409 293.53 111.026C293.903 110.634 294.09 110.135 294.09 109.528C294.09 108.921 293.903 108.427 293.53 108.044C293.166 107.652 292.694 107.456 292.116 107.456C291.546 107.456 291.075 107.647 290.702 108.03C290.328 108.413 290.142 108.907 290.142 109.514C290.142 110.121 290.328 110.62 290.702 111.012C291.075 111.404 291.546 111.6 292.116 111.6ZM298.645 104.978C298.318 104.978 298.047 104.88 297.833 104.684C297.627 104.488 297.525 104.241 297.525 103.942C297.525 103.643 297.627 103.401 297.833 103.214C298.047 103.018 298.318 102.92 298.645 102.92C298.971 102.92 299.237 103.018 299.443 103.214C299.657 103.401 299.765 103.643 299.765 103.942C299.765 104.241 299.657 104.488 299.443 104.684C299.237 104.88 298.971 104.978 298.645 104.978ZM297.749 113V106.056H299.541V113H297.749ZM301.411 116.08V106.056H303.007L303.203 107.05C303.427 106.742 303.721 106.471 304.085 106.238C304.458 106.005 304.939 105.888 305.527 105.888C306.18 105.888 306.764 106.047 307.277 106.364C307.79 106.681 308.196 107.115 308.495 107.666C308.794 108.217 308.943 108.842 308.943 109.542C308.943 110.242 308.794 110.867 308.495 111.418C308.196 111.959 307.79 112.389 307.277 112.706C306.764 113.014 306.18 113.168 305.527 113.168C305.004 113.168 304.547 113.07 304.155 112.874C303.763 112.678 303.446 112.403 303.203 112.048V116.08H301.411ZM305.149 111.6C305.718 111.6 306.19 111.409 306.563 111.026C306.936 110.643 307.123 110.149 307.123 109.542C307.123 108.935 306.936 108.436 306.563 108.044C306.19 107.652 305.718 107.456 305.149 107.456C304.57 107.456 304.094 107.652 303.721 108.044C303.357 108.427 303.175 108.921 303.175 109.528C303.175 110.135 303.357 110.634 303.721 111.026C304.094 111.409 304.57 111.6 305.149 111.6ZM311.51 104.978C311.183 104.978 310.912 104.88 310.698 104.684C310.492 104.488 310.39 104.241 310.39 103.942C310.39 103.643 310.492 103.401 310.698 103.214C310.912 103.018 311.183 102.92 311.51 102.92C311.836 102.92 312.102 103.018 312.308 103.214C312.522 103.401 312.63 103.643 312.63 103.942C312.63 104.241 312.522 104.488 312.308 104.684C312.102 104.88 311.836 104.978 311.51 104.978ZM310.614 113V106.056H312.406V113H310.614ZM317.146 113.168C316.53 113.168 315.989 113.07 315.522 112.874C315.056 112.669 314.682 112.389 314.402 112.034C314.122 111.679 313.954 111.269 313.898 110.802H315.704C315.76 111.073 315.91 111.306 316.152 111.502C316.404 111.689 316.726 111.782 317.118 111.782C317.51 111.782 317.795 111.703 317.972 111.544C318.159 111.385 318.252 111.203 318.252 110.998C318.252 110.699 318.122 110.499 317.86 110.396C317.599 110.284 317.235 110.177 316.768 110.074C316.47 110.009 316.166 109.929 315.858 109.836C315.55 109.743 315.266 109.626 315.004 109.486C314.752 109.337 314.547 109.15 314.388 108.926C314.23 108.693 314.15 108.408 314.15 108.072C314.15 107.456 314.393 106.938 314.878 106.518C315.373 106.098 316.064 105.888 316.95 105.888C317.772 105.888 318.425 106.079 318.91 106.462C319.405 106.845 319.699 107.372 319.792 108.044H318.098C317.996 107.531 317.608 107.274 316.936 107.274C316.6 107.274 316.339 107.339 316.152 107.47C315.975 107.601 315.886 107.764 315.886 107.96C315.886 108.165 316.022 108.329 316.292 108.45C316.563 108.571 316.922 108.683 317.37 108.786C317.856 108.898 318.299 109.024 318.7 109.164C319.111 109.295 319.438 109.495 319.68 109.766C319.923 110.027 320.044 110.405 320.044 110.9C320.054 111.329 319.942 111.717 319.708 112.062C319.475 112.407 319.139 112.678 318.7 112.874C318.262 113.07 317.744 113.168 317.146 113.168ZM325.034 113.168C324.324 113.168 323.699 113.014 323.158 112.706C322.616 112.398 322.187 111.969 321.87 111.418C321.562 110.867 321.408 110.237 321.408 109.528C321.408 108.819 321.562 108.189 321.87 107.638C322.187 107.087 322.616 106.658 323.158 106.35C323.699 106.042 324.324 105.888 325.034 105.888C325.92 105.888 326.667 106.121 327.274 106.588C327.88 107.045 328.268 107.68 328.436 108.492H326.546C326.452 108.156 326.266 107.895 325.986 107.708C325.715 107.512 325.393 107.414 325.02 107.414C324.525 107.414 324.105 107.601 323.76 107.974C323.414 108.347 323.242 108.865 323.242 109.528C323.242 110.191 323.414 110.709 323.76 111.082C324.105 111.455 324.525 111.642 325.02 111.642C325.393 111.642 325.715 111.549 325.986 111.362C326.266 111.175 326.452 110.909 326.546 110.564H328.436C328.268 111.348 327.88 111.978 327.274 112.454C326.667 112.93 325.92 113.168 325.034 113.168ZM330.992 104.978C330.666 104.978 330.395 104.88 330.18 104.684C329.975 104.488 329.872 104.241 329.872 103.942C329.872 103.643 329.975 103.401 330.18 103.214C330.395 103.018 330.666 102.92 330.992 102.92C331.319 102.92 331.585 103.018 331.79 103.214C332.005 103.401 332.112 103.643 332.112 103.942C332.112 104.241 332.005 104.488 331.79 104.684C331.585 104.88 331.319 104.978 330.992 104.978ZM330.096 113V106.056H331.888V113H330.096ZM333.759 113V106.056H335.341L335.481 107.232C335.695 106.821 336.003 106.495 336.405 106.252C336.815 106.009 337.296 105.888 337.847 105.888C338.705 105.888 339.373 106.159 339.849 106.7C340.325 107.241 340.563 108.035 340.563 109.08V113H338.771V109.248C338.771 108.651 338.649 108.193 338.407 107.876C338.164 107.559 337.786 107.4 337.273 107.4C336.769 107.4 336.353 107.577 336.027 107.932C335.709 108.287 335.551 108.781 335.551 109.416V113H333.759ZM345.216 110.928C344.88 110.928 344.568 110.891 344.278 110.816L343.76 111.334C343.919 111.418 344.134 111.488 344.404 111.544C344.675 111.6 345.114 111.656 345.72 111.712C346.644 111.796 347.316 112.015 347.736 112.37C348.156 112.725 348.366 113.215 348.366 113.84C348.366 114.251 348.254 114.638 348.03 115.002C347.806 115.375 347.461 115.674 346.994 115.898C346.528 116.131 345.93 116.248 345.202 116.248C344.213 116.248 343.415 116.061 342.808 115.688C342.202 115.324 341.898 114.773 341.898 114.036C341.898 113.411 342.202 112.869 342.808 112.412C342.622 112.328 342.458 112.239 342.318 112.146C342.188 112.053 342.071 111.955 341.968 111.852V111.53L343.186 110.242C342.645 109.766 342.374 109.155 342.374 108.408C342.374 107.941 342.486 107.517 342.71 107.134C342.944 106.751 343.27 106.448 343.69 106.224C344.11 106 344.619 105.888 345.216 105.888C345.608 105.888 345.972 105.944 346.308 106.056H348.94V107.148L347.75 107.232C347.937 107.587 348.03 107.979 348.03 108.408C348.03 108.875 347.918 109.299 347.694 109.682C347.47 110.065 347.144 110.368 346.714 110.592C346.294 110.816 345.795 110.928 345.216 110.928ZM345.216 109.556C345.58 109.556 345.879 109.458 346.112 109.262C346.355 109.066 346.476 108.786 346.476 108.422C346.476 108.058 346.355 107.778 346.112 107.582C345.879 107.386 345.58 107.288 345.216 107.288C344.834 107.288 344.526 107.386 344.292 107.582C344.059 107.778 343.942 108.058 343.942 108.422C343.942 108.786 344.059 109.066 344.292 109.262C344.526 109.458 344.834 109.556 345.216 109.556ZM343.536 113.854C343.536 114.199 343.695 114.456 344.012 114.624C344.339 114.801 344.736 114.89 345.202 114.89C345.65 114.89 346.014 114.797 346.294 114.61C346.574 114.433 346.714 114.19 346.714 113.882C346.714 113.63 346.621 113.42 346.434 113.252C346.257 113.084 345.898 112.981 345.356 112.944C344.974 112.916 344.619 112.874 344.292 112.818C344.022 112.967 343.826 113.131 343.704 113.308C343.592 113.485 343.536 113.667 343.536 113.854ZM356.957 113.168C356.257 113.168 355.636 113.019 355.095 112.72C354.554 112.421 354.129 112.001 353.821 111.46C353.513 110.919 353.359 110.293 353.359 109.584C353.359 108.865 353.508 108.226 353.807 107.666C354.115 107.106 354.535 106.672 355.067 106.364C355.608 106.047 356.243 105.888 356.971 105.888C357.652 105.888 358.254 106.037 358.777 106.336C359.3 106.635 359.706 107.045 359.995 107.568C360.294 108.081 360.443 108.655 360.443 109.29C360.443 109.393 360.438 109.5 360.429 109.612C360.429 109.724 360.424 109.841 360.415 109.962H355.137C355.174 110.503 355.361 110.928 355.697 111.236C356.042 111.544 356.458 111.698 356.943 111.698C357.307 111.698 357.61 111.619 357.853 111.46C358.105 111.292 358.292 111.077 358.413 110.816H360.233C360.102 111.255 359.883 111.656 359.575 112.02C359.276 112.375 358.903 112.655 358.455 112.86C358.016 113.065 357.517 113.168 356.957 113.168ZM356.971 107.344C356.532 107.344 356.145 107.47 355.809 107.722C355.473 107.965 355.258 108.338 355.165 108.842H358.623C358.595 108.385 358.427 108.021 358.119 107.75C357.811 107.479 357.428 107.344 356.971 107.344ZM361.95 113V102.92H363.742V113H361.95ZM366.539 104.978C366.212 104.978 365.942 104.88 365.727 104.684C365.522 104.488 365.419 104.241 365.419 103.942C365.419 103.643 365.522 103.401 365.727 103.214C365.942 103.018 366.212 102.92 366.539 102.92C366.866 102.92 367.132 103.018 367.337 103.214C367.552 103.401 367.659 103.643 367.659 103.942C367.659 104.241 367.552 104.488 367.337 104.684C367.132 104.88 366.866 104.978 366.539 104.978ZM365.643 113V106.056H367.435V113H365.643ZM372.4 113C371.672 113 371.088 112.823 370.65 112.468C370.211 112.113 369.992 111.483 369.992 110.578V107.554H368.802V106.056H369.992L370.202 104.194H371.784V106.056H373.66V107.554H371.784V110.592C371.784 110.928 371.854 111.161 371.994 111.292C372.143 111.413 372.395 111.474 372.75 111.474H373.618V113H372.4ZM375.968 113.098C375.641 113.098 375.371 112.995 375.156 112.79C374.951 112.585 374.848 112.337 374.848 112.048C374.848 111.749 374.951 111.497 375.156 111.292C375.371 111.087 375.641 110.984 375.968 110.984C376.295 110.984 376.561 111.087 376.766 111.292C376.981 111.497 377.088 111.749 377.088 112.048C377.088 112.337 376.981 112.585 376.766 112.79C376.561 112.995 376.295 113.098 375.968 113.098Z" fill="#666666"/>
<rect x="89" y="142" width="200" height="40" rx="4" stroke="#9BA0EF" stroke-linecap="round" stroke-linejoin="round" stroke-dasharray="4 4"/>
<path d="M135.416 167L139.544 155.8H141.4L145.496 167H143.704L142.744 164.264H138.168L137.208 167H135.416ZM138.648 162.92H142.264L140.456 157.816L138.648 162.92ZM150.204 167.192C149.436 167.192 148.758 167.011 148.172 166.648C147.585 166.285 147.126 165.789 146.796 165.16C146.465 164.531 146.3 163.816 146.3 163.016C146.3 162.216 146.465 161.507 146.796 160.888C147.126 160.259 147.585 159.768 148.172 159.416C148.769 159.053 149.452 158.872 150.22 158.872C150.849 158.872 151.398 158.995 151.868 159.24C152.348 159.485 152.721 159.832 152.988 160.28V155.48H154.684V167H153.164L152.988 165.768C152.732 166.141 152.38 166.472 151.932 166.76C151.484 167.048 150.908 167.192 150.204 167.192ZM150.508 165.72C151.233 165.72 151.825 165.469 152.284 164.968C152.753 164.467 152.988 163.821 152.988 163.032C152.988 162.232 152.753 161.587 152.284 161.096C151.825 160.595 151.233 160.344 150.508 160.344C149.782 160.344 149.185 160.595 148.716 161.096C148.246 161.587 148.012 162.232 148.012 163.032C148.012 163.555 148.118 164.019 148.332 164.424C148.545 164.829 148.838 165.149 149.212 165.384C149.596 165.608 150.028 165.72 150.508 165.72ZM160.438 167.192C159.67 167.192 158.993 167.011 158.406 166.648C157.819 166.285 157.361 165.789 157.03 165.16C156.699 164.531 156.534 163.816 156.534 163.016C156.534 162.216 156.699 161.507 157.03 160.888C157.361 160.259 157.819 159.768 158.406 159.416C159.003 159.053 159.686 158.872 160.454 158.872C161.083 158.872 161.633 158.995 162.102 159.24C162.582 159.485 162.955 159.832 163.222 160.28V155.48H164.918V167H163.398L163.222 165.768C162.966 166.141 162.614 166.472 162.166 166.76C161.718 167.048 161.142 167.192 160.438 167.192ZM160.742 165.72C161.467 165.72 162.059 165.469 162.518 164.968C162.987 164.467 163.222 163.821 163.222 163.032C163.222 162.232 162.987 161.587 162.518 161.096C162.059 160.595 161.467 160.344 160.742 160.344C160.017 160.344 159.419 160.595 158.95 161.096C158.481 161.587 158.246 162.232 158.246 163.032C158.246 163.555 158.353 164.019 158.566 164.424C158.779 164.829 159.073 165.149 159.446 165.384C159.83 165.608 160.262 165.72 160.742 165.72ZM173.776 167.192C173.104 167.192 172.549 167.08 172.112 166.856C171.674 166.632 171.349 166.339 171.136 165.976C170.922 165.603 170.816 165.197 170.816 164.76C170.816 163.992 171.114 163.384 171.712 162.936C172.309 162.488 173.162 162.264 174.272 162.264H176.352V162.12C176.352 161.501 176.181 161.037 175.84 160.728C175.509 160.419 175.077 160.264 174.544 160.264C174.074 160.264 173.664 160.381 173.312 160.616C172.97 160.84 172.762 161.176 172.688 161.624H170.992C171.045 161.048 171.237 160.557 171.568 160.152C171.909 159.736 172.336 159.421 172.848 159.208C173.37 158.984 173.941 158.872 174.56 158.872C175.669 158.872 176.528 159.165 177.136 159.752C177.744 160.328 178.048 161.117 178.048 162.12V167H176.576L176.432 165.64C176.208 166.077 175.882 166.445 175.456 166.744C175.029 167.043 174.469 167.192 173.776 167.192ZM174.112 165.816C174.57 165.816 174.954 165.709 175.264 165.496C175.584 165.272 175.829 164.979 176 164.616C176.181 164.253 176.293 163.853 176.336 163.416H174.448C173.776 163.416 173.296 163.533 173.008 163.768C172.73 164.003 172.592 164.296 172.592 164.648C172.592 165.011 172.725 165.299 172.992 165.512C173.269 165.715 173.642 165.816 174.112 165.816ZM184.12 167V155.8H185.816L191.432 164.232V155.8H193.128V167H191.432L185.816 158.568V167H184.12ZM199.05 167.192C198.271 167.192 197.578 167.021 196.97 166.68C196.372 166.328 195.903 165.843 195.562 165.224C195.22 164.605 195.05 163.885 195.05 163.064C195.05 162.232 195.215 161.501 195.546 160.872C195.887 160.243 196.356 159.752 196.954 159.4C197.562 159.048 198.266 158.872 199.066 158.872C199.844 158.872 200.522 159.048 201.098 159.4C201.674 159.741 202.122 160.2 202.442 160.776C202.762 161.352 202.922 161.987 202.922 162.68C202.922 162.787 202.916 162.904 202.906 163.032C202.906 163.149 202.9 163.283 202.89 163.432H196.714C196.767 164.2 197.018 164.787 197.466 165.192C197.924 165.587 198.452 165.784 199.05 165.784C199.53 165.784 199.93 165.677 200.25 165.464C200.58 165.24 200.826 164.941 200.986 164.568H202.682C202.468 165.315 202.042 165.939 201.402 166.44C200.772 166.941 199.988 167.192 199.05 167.192ZM199.05 160.264C198.484 160.264 197.983 160.435 197.546 160.776C197.108 161.107 196.842 161.608 196.746 162.28H201.226C201.194 161.661 200.975 161.171 200.57 160.808C200.164 160.445 199.658 160.264 199.05 160.264ZM205.953 167L203.617 159.064H205.313L206.849 165.048L208.577 159.064H210.465L212.193 165.048L213.729 159.064H215.425L213.089 167H211.345L209.521 160.76L207.697 167H205.953ZM226.085 167.192C224.976 167.192 224.005 166.947 223.173 166.456C222.341 165.965 221.691 165.288 221.221 164.424C220.752 163.549 220.517 162.541 220.517 161.4C220.517 160.259 220.752 159.256 221.221 158.392C221.691 157.517 222.341 156.835 223.173 156.344C224.005 155.853 224.976 155.608 226.085 155.608C227.195 155.608 228.165 155.853 228.997 156.344C229.829 156.835 230.475 157.517 230.933 158.392C231.403 159.256 231.637 160.259 231.637 161.4C231.637 162.499 231.419 163.475 230.981 164.328C230.555 165.181 229.957 165.853 229.189 166.344L231.893 169.096H229.749L227.749 166.984C227.227 167.123 226.672 167.192 226.085 167.192ZM226.085 165.672C226.853 165.672 227.52 165.501 228.085 165.16C228.661 164.819 229.109 164.328 229.429 163.688C229.749 163.048 229.909 162.285 229.909 161.4C229.909 160.515 229.749 159.752 229.429 159.112C229.109 158.472 228.661 157.981 228.085 157.64C227.52 157.299 226.853 157.128 226.085 157.128C225.317 157.128 224.645 157.299 224.069 157.64C223.493 157.981 223.045 158.472 222.725 159.112C222.416 159.752 222.261 160.515 222.261 161.4C222.261 162.285 222.416 163.048 222.725 163.688C223.045 164.328 223.493 164.819 224.069 165.16C224.645 165.501 225.317 165.672 226.085 165.672ZM236.516 167.192C235.556 167.192 234.798 166.893 234.244 166.296C233.7 165.699 233.428 164.808 233.428 163.624V159.064H235.124V163.448C235.124 164.984 235.753 165.752 237.012 165.752C237.641 165.752 238.158 165.528 238.564 165.08C238.969 164.632 239.172 163.992 239.172 163.16V159.064H240.868V167H239.364L239.236 165.608C238.99 166.099 238.628 166.488 238.148 166.776C237.678 167.053 237.134 167.192 236.516 167.192ZM246.737 167.192C245.958 167.192 245.265 167.021 244.657 166.68C244.06 166.328 243.59 165.843 243.249 165.224C242.908 164.605 242.737 163.885 242.737 163.064C242.737 162.232 242.902 161.501 243.233 160.872C243.574 160.243 244.044 159.752 244.641 159.4C245.249 159.048 245.953 158.872 246.753 158.872C247.532 158.872 248.209 159.048 248.785 159.4C249.361 159.741 249.809 160.2 250.129 160.776C250.449 161.352 250.609 161.987 250.609 162.68C250.609 162.787 250.604 162.904 250.593 163.032C250.593 163.149 250.588 163.283 250.577 163.432H244.401C244.454 164.2 244.705 164.787 245.153 165.192C245.612 165.587 246.14 165.784 246.737 165.784C247.217 165.784 247.617 165.677 247.937 165.464C248.268 165.24 248.513 164.941 248.673 164.568H250.369C250.156 165.315 249.729 165.939 249.089 166.44C248.46 166.941 247.676 167.192 246.737 167.192ZM246.737 160.264C246.172 160.264 245.67 160.435 245.233 160.776C244.796 161.107 244.529 161.608 244.433 162.28H248.913C248.881 161.661 248.662 161.171 248.257 160.808C247.852 160.445 247.345 160.264 246.737 160.264ZM255.537 167.192C254.534 167.192 253.708 166.947 253.057 166.456C252.406 165.965 252.033 165.315 251.937 164.504H253.649C253.734 164.867 253.937 165.181 254.257 165.448C254.577 165.704 254.998 165.832 255.521 165.832C256.033 165.832 256.406 165.725 256.641 165.512C256.876 165.299 256.993 165.053 256.993 164.776C256.993 164.371 256.828 164.099 256.497 163.96C256.177 163.811 255.729 163.677 255.153 163.56C254.705 163.464 254.257 163.336 253.809 163.176C253.372 163.016 253.004 162.792 252.705 162.504C252.417 162.205 252.273 161.805 252.273 161.304C252.273 160.611 252.54 160.035 253.073 159.576C253.606 159.107 254.353 158.872 255.313 158.872C256.198 158.872 256.913 159.085 257.457 159.512C258.012 159.939 258.337 160.541 258.433 161.32H256.801C256.748 160.979 256.588 160.712 256.321 160.52C256.065 160.328 255.718 160.232 255.281 160.232C254.854 160.232 254.524 160.323 254.289 160.504C254.054 160.675 253.937 160.899 253.937 161.176C253.937 161.453 254.097 161.672 254.417 161.832C254.748 161.992 255.18 162.136 255.713 162.264C256.246 162.381 256.737 162.52 257.185 162.68C257.644 162.829 258.012 163.053 258.289 163.352C258.566 163.651 258.705 164.088 258.705 164.664C258.716 165.389 258.433 165.992 257.857 166.472C257.292 166.952 256.518 167.192 255.537 167.192ZM263.588 167C262.809 167 262.19 166.813 261.732 166.44C261.273 166.056 261.044 165.379 261.044 164.408V160.488H259.684V159.064H261.044L261.252 157.048H262.74V159.064H264.98V160.488H262.74V164.408C262.74 164.845 262.83 165.149 263.012 165.32C263.204 165.48 263.529 165.56 263.988 165.56H264.9V167H263.588Z" fill="#9BA0EF"/>
<g clip-path="url(#clip0_6490_1463)">
<path d="M119.969 154C124.363 154 128 157.575 128 161.969C128 166.363 124.363 170 119.969 170C115.575 170 112 166.363 112 161.969C112 157.575 115.575 154 119.969 154ZM115.75 162.906H119.031V166.25C119.031 166.767 119.452 167.188 119.969 167.188C120.486 167.188 120.906 166.767 120.906 166.25V162.906H124.25C124.767 162.906 125.188 162.486 125.188 161.969C125.188 161.452 124.767 161.031 124.25 161.031H120.906V157.75C120.906 157.233 120.486 156.812 119.969 156.812C119.452 156.812 119.031 157.233 119.031 157.75V161.031H115.75C115.233 161.031 114.812 161.452 114.812 161.969C114.812 162.486 115.233 162.906 115.75 162.906Z" fill="#9BA0EF"/>
</g>
<g clip-path="url(#clip1_6490_1463)">
<path d="M201.5 26.25V17.5C201.5 16.125 200.375 15 199 15H169C167.625 15 166.5 16.125 166.5 17.5V42.5C166.5 43.875 167.625 45 169 45H199C200.375 45 201.5 43.875 201.5 42.5V33.75L211.5 43.75V16.25L201.5 26.25Z" fill="#4F4F4F"/>
</g>
<defs>
<clipPath id="clip0_6490_1463">
<rect width="16" height="16" fill="white" transform="matrix(-1 0 0 1 128 154)"/>
</clipPath>
<clipPath id="clip1_6490_1463">
<rect width="60" height="60" fill="white" transform="translate(159)"/>
</clipPath>
</defs>
</svg>
