<svg width="1100" height="1184" viewBox="0 0 1100 1184" fill="none" xmlns="http://www.w3.org/2000/svg">
<path d="M796.221 1183.04H418.798C411.056 1183.04 405.249 1179.16 399.443 1175.29C393.636 1169.49 391.701 1161.75 391.701 1154C391.701 1136.58 391.701 1119.16 391.701 1101.74V1039.81C391.701 1006.9 391.701 974.001 391.701 941.097C391.701 933.355 387.83 927.549 382.023 923.678C281.377 861.742 211.699 761.096 188.472 646.901C165.246 546.254 180.73 439.801 231.054 348.833C250.409 308.187 277.506 271.412 310.409 240.444C407.185 145.605 542.67 106.894 674.285 133.992C734.285 143.669 790.415 168.831 838.803 203.67C923.965 265.606 960.739 354.639 985.901 433.995C997.514 472.705 1076.87 679.804 1092.35 708.837C1100.1 722.385 1102.03 737.869 1096.22 753.353C1090.42 763.031 1080.74 768.838 1069.13 768.838H1022.68C1013 768.838 1005.26 778.515 1005.26 788.193C1005.26 815.29 1005.26 844.322 1005.26 871.419V917.872C1005.26 923.678 1005.26 929.484 1005.26 935.291C1005.26 964.324 982.03 989.485 952.997 989.485C951.062 989.485 951.062 989.485 949.126 989.485H838.803C834.932 989.485 829.125 989.485 825.254 991.421C823.318 995.292 821.383 1001.1 821.383 1004.97V1155.94C823.319 1169.49 811.705 1183.04 796.221 1183.04ZM430.411 1142.39H784.608V1003.03C782.673 987.55 788.479 972.066 800.092 960.453C811.705 950.775 825.254 944.969 840.738 946.904H949.126C958.804 946.904 964.61 944.969 964.61 929.484C964.61 925.613 964.61 919.807 964.61 915.936V869.484C964.61 842.387 964.61 813.354 964.61 786.257C964.61 755.289 989.772 728.192 1020.74 728.192H1055.58C1036.22 689.482 956.868 480.447 947.191 445.608C923.965 368.188 891.061 288.832 815.576 234.638C771.06 203.67 720.737 182.379 666.543 172.702C546.541 147.54 422.669 184.315 335.571 269.477C306.538 296.574 281.377 329.478 263.957 366.252C219.441 449.479 205.892 546.254 225.247 639.159C246.538 743.676 310.409 834.645 401.378 890.774C418.798 900.452 430.411 919.807 428.475 941.097C428.475 974.001 428.475 1006.9 428.475 1037.87V1099.81C430.411 1115.29 430.411 1128.84 430.411 1142.39Z" fill="#202C47"/>
<path d="M430.411 1142.39H784.608V1003.03C782.673 987.55 788.479 972.066 800.092 960.453C811.705 950.775 825.254 944.969 840.738 946.904H949.126C958.804 946.904 964.61 944.969 964.61 929.484V915.936V869.484V786.257C964.61 755.289 989.772 728.192 1020.74 728.192H1055.58C1036.22 689.482 956.868 480.447 947.191 445.608C923.965 368.188 891.061 288.832 815.576 234.638C771.06 203.67 720.737 182.379 666.543 172.702C546.541 147.54 422.669 184.315 335.571 269.477C306.538 296.574 281.377 329.478 263.957 366.252C219.441 449.479 205.892 546.254 225.247 639.159C246.538 743.676 310.409 834.645 401.378 890.774C418.798 900.452 430.411 919.807 428.475 941.097V1037.87V1099.81C430.411 1115.29 430.411 1128.84 430.411 1142.39Z" fill="white"/>
<path opacity="0.95" d="M211.495 847.751C328.011 847.751 422.465 753.297 422.465 636.781C422.465 520.266 328.011 425.811 211.495 425.811C94.9795 425.811 0.524902 520.266 0.524902 636.781C0.524902 753.297 94.9795 847.751 211.495 847.751Z" fill="#3565A3"/>
<path opacity="0.95" d="M726.341 483.876C808.65 483.876 875.375 417.151 875.375 334.842C875.375 252.533 808.65 185.808 726.341 185.808C644.031 185.808 577.307 252.533 577.307 334.842C577.307 417.151 644.031 483.876 726.341 483.876Z" fill="#F6B542"/>
<path opacity="0.95" d="M443.758 727.75C644.721 727.75 807.633 564.838 807.633 363.875C807.633 162.912 644.721 0 443.758 0C242.795 0 79.8828 162.912 79.8828 363.875C79.8828 564.838 242.795 727.75 443.758 727.75Z" fill="#DE6139"/>
<path d="M796.019 1182.59H418.596C410.854 1182.59 405.047 1178.72 399.241 1174.85C393.434 1169.04 391.499 1161.3 391.499 1153.56C391.499 1136.14 391.499 1118.72 391.499 1101.3V1039.37C391.499 1006.46 391.499 973.559 391.499 940.655C391.499 932.913 387.627 927.107 381.821 923.236C281.175 861.299 211.496 760.653 188.27 646.458C165.044 545.812 180.528 439.359 230.851 348.39C250.207 307.745 277.304 270.97 310.207 240.002C406.983 145.162 542.468 106.452 674.082 133.549C734.083 143.227 790.213 168.388 838.6 203.227C923.763 265.164 960.537 354.197 985.699 433.553C997.312 472.263 1076.67 679.362 1092.15 708.394C1099.89 721.943 1101.83 737.427 1096.02 752.911C1090.22 762.589 1080.54 768.395 1068.93 768.395H1022.47C1012.8 768.395 1005.05 778.073 1005.05 787.75C1005.05 814.847 1005.05 843.88 1005.05 870.977V917.429C1005.05 923.236 1005.05 929.042 1005.05 934.849C1005.05 963.881 981.828 989.043 952.795 989.043C950.86 989.043 950.86 989.043 948.924 989.043H838.6C834.729 989.043 828.923 989.043 825.052 990.978C823.116 994.849 821.181 1000.66 821.181 1004.53V1155.5C823.116 1169.04 811.503 1182.59 796.019 1182.59ZM430.209 1141.95H784.406V1002.59C782.471 987.107 788.277 971.623 799.89 960.01C811.503 950.333 825.052 944.526 840.536 946.462H948.924C958.602 946.462 964.408 944.526 964.408 929.042C964.408 925.171 964.408 919.365 964.408 915.494V869.042C964.408 841.944 964.408 812.912 964.408 785.815C964.408 754.847 989.57 727.749 1020.54 727.749H1055.38C1036.02 689.039 956.666 480.005 946.989 445.166C923.763 367.745 890.859 288.39 815.374 234.195C770.858 203.227 720.535 181.937 666.34 172.259C546.339 147.098 422.467 183.872 335.369 269.035C306.336 296.132 281.175 329.035 263.755 365.81C219.238 449.037 205.69 545.812 225.045 638.716C246.336 743.234 310.207 834.202 401.176 890.332C418.596 900.01 430.209 919.365 428.273 940.655C428.273 973.559 428.273 1006.46 428.273 1037.43V1099.37C430.209 1114.85 430.209 1128.4 430.209 1141.95Z" fill="#202C47"/>
</svg>
