<svg width="25" height="26" viewBox="0 0 25 26" fill="none" xmlns="http://www.w3.org/2000/svg">
<path d="M11.875 16.125L20.625 10.5L11.875 4.875V16.125ZM7.5 20.5C6.8125 20.5 6.22417 20.2554 5.735 19.7663C5.245 19.2763 5 18.6875 5 18V3C5 2.3125 5.245 1.72375 5.735 1.23375C6.22417 0.744583 6.8125 0.5 7.5 0.5H22.5C23.1875 0.5 23.7763 0.744583 24.2663 1.23375C24.7554 1.72375 25 2.3125 25 3V18C25 18.6875 24.7554 19.2763 24.2663 19.7663C23.7763 20.2554 23.1875 20.5 22.5 20.5H7.5ZM2.5 25.5C1.8125 25.5 1.22417 25.2554 0.735 24.7663C0.245 24.2763 0 23.6875 0 23V5.5H2.5V23H20V25.5H2.5Z" fill="#1CAC90"/>
</svg>
