<svg width="16" height="18" viewBox="0 0 16 18" fill="none" xmlns="http://www.w3.org/2000/svg">
<path fill-rule="evenodd" clip-rule="evenodd" d="M8.88889 6.67466H13.3333V4.78498H8.88889V6.67466ZM8.88889 13.2885H13.3333V11.3989H8.88889V13.2885ZM14.2222 17.5403H1.77778C0.8 17.5403 0 16.69 0 15.6506V2.42288C0 1.38356 0.8 0.533203 1.77778 0.533203H14.2222C15.2 0.533203 16 1.38356 16 2.42288V15.6506C16 16.69 15.2 17.5403 14.2222 17.5403ZM2.66667 8.09192H7.11111V3.36772H2.66667V8.09192ZM3.55556 4.31256H6.22222V7.14708H3.55556V4.31256ZM2.66667 14.7058H7.11111V9.9816H2.66667V14.7058ZM3.55556 10.9264H6.22222V13.761H3.55556V10.9264Z" fill="#40B4CD"/>
</svg>
