<svg
                width="21"
                height="21"
                viewBox="0 0 21 21"
                fill="none"
                xmlns="http://www.w3.org/2000/svg"
              >
                <path
                  d="M10.15 16.0349C9.41313 16.0445 8.6808 15.9177 7.99003 15.6609C7.40331 15.453 6.8825 15.0926 6.48103 14.6169C6.11701 14.1698 5.92258 13.6084 5.93203 13.0319H8.02003C8.03941 13.2499 8.10349 13.4616 8.20826 13.6538C8.31304 13.846 8.45627 14.0145 8.62903 14.1489C9.0703 14.466 9.60777 14.6204 10.15 14.5859C10.7084 14.6207 11.2627 14.4714 11.728 14.1609C11.9055 14.0361 12.0498 13.8698 12.1485 13.6765C12.2471 13.4833 12.2971 13.2689 12.294 13.0519C12.2997 12.8918 12.2712 12.7323 12.2105 12.584C12.1498 12.4358 12.0583 12.3021 11.942 12.1919C11.6904 11.9604 11.392 11.7854 11.067 11.6789C10.5919 11.5214 10.1089 11.3886 9.62003 11.2809C8.97521 11.1399 8.34048 10.9561 7.72003 10.7309C7.24148 10.5478 6.81578 10.2488 6.48103 9.86091C6.12118 9.41928 5.93802 8.85983 5.96703 8.29091C5.95612 7.71993 6.13712 7.16181 6.48103 6.70591C6.85423 6.23195 7.35273 5.87202 7.92003 5.66691C8.60554 5.41365 9.33237 5.29087 10.063 5.30491C11.0647 5.26259 12.0553 5.52855 12.901 6.06691C13.2534 6.29741 13.5476 6.60644 13.7605 6.96976C13.9734 7.33308 14.0992 7.7408 14.128 8.16091H11.968C11.9449 7.96172 11.8775 7.77023 11.7707 7.60049C11.6639 7.43074 11.5205 7.28704 11.351 7.17991C10.9092 6.88996 10.3869 6.74747 9.85903 6.77291C9.37347 6.7515 8.89348 6.88339 8.48703 7.14991C8.31364 7.27129 8.17388 7.43469 8.08084 7.62479C7.9878 7.8149 7.94451 8.02551 7.95503 8.23691C7.95045 8.38518 7.97792 8.53269 8.03556 8.66937C8.0932 8.80606 8.17966 8.92869 8.28903 9.02891C8.53546 9.2487 8.82444 9.41548 9.13803 9.51891C9.59982 9.67309 10.0691 9.80393 10.544 9.91091C11.1984 10.0615 11.8426 10.2529 12.473 10.4839C12.9619 10.6676 13.3981 10.9687 13.743 11.3609C14.1108 11.8103 14.2974 12.381 14.266 12.9609C14.2614 13.4993 14.0906 14.0232 13.777 14.4609C13.4159 14.9648 12.9238 15.3604 12.354 15.6049C11.6592 15.9062 10.9072 16.0529 10.15 16.0349Z"
                  fill="#333333"
                />
                <path
                  d="M10.118 0.636963C12.0921 0.636963 14.0218 1.22234 15.6632 2.31906C17.3045 3.41579 18.5838 4.97461 19.3393 6.7984C20.0947 8.62219 20.2924 10.629 19.9072 12.5652C19.5221 14.5013 18.5715 16.2797 17.1757 17.6756C15.7798 19.0715 14.0013 20.0221 12.0652 20.4072C10.1291 20.7923 8.12225 20.5946 6.29846 19.8392C4.47467 19.0838 2.91585 17.8045 1.81913 16.1631C0.722399 14.5217 0.137024 12.592 0.137024 10.618C0.139936 7.97173 1.19244 5.43472 3.06361 3.56355C4.93478 1.69238 7.47179 0.639874 10.118 0.636963ZM10.118 18.989C11.7737 18.989 13.3921 18.498 14.7687 17.5782C16.1453 16.6584 17.2182 15.351 17.8518 13.8214C18.4854 12.2918 18.6512 10.6087 18.3282 8.98486C18.0052 7.36105 17.2079 5.86948 16.0372 4.69877C14.8665 3.52807 13.3749 2.73081 11.7511 2.40781C10.1273 2.08481 8.44418 2.25059 6.91458 2.88417C5.38498 3.51775 4.07761 4.59068 3.15779 5.96728C2.23797 7.34389 1.74702 8.96234 1.74702 10.618C1.74967 12.8373 2.63246 14.9649 4.20176 16.5342C5.77105 18.1035 7.89871 18.9863 10.118 18.989Z"
                  fill="#48AEEC"
                />
              </svg>