<svg width="6330" height="1185" viewBox="0 0 6330 1185" fill="none" xmlns="http://www.w3.org/2000/svg">
<path d="M3103.55 593.229V597.166H3102.55V588.439H3103.55V591.643H3103.64C3103.79 591.305 3104.02 591.037 3104.33 590.838C3104.64 590.636 3105.05 590.535 3105.56 590.535C3106.01 590.535 3106.4 590.625 3106.74 590.804C3107.07 590.98 3107.33 591.251 3107.52 591.618C3107.7 591.981 3107.8 592.444 3107.8 593.007V597.166H3106.79V593.075C3106.79 592.555 3106.66 592.153 3106.39 591.869C3106.12 591.582 3105.75 591.439 3105.28 591.439C3104.95 591.439 3104.65 591.508 3104.39 591.648C3104.13 591.787 3103.93 591.99 3103.78 592.257C3103.63 592.524 3103.55 592.848 3103.55 593.229ZM3112.48 590.621V591.473H3109.09V590.621H3112.48ZM3110.08 589.052H3111.09V595.291C3111.09 595.575 3111.13 595.788 3111.21 595.93C3111.3 596.069 3111.4 596.163 3111.53 596.211C3111.67 596.257 3111.81 596.28 3111.96 596.28C3112.07 596.28 3112.16 596.274 3112.23 596.263C3112.3 596.248 3112.36 596.237 3112.4 596.229L3112.6 597.132C3112.54 597.157 3112.44 597.183 3112.32 597.209C3112.2 597.237 3112.04 597.251 3111.85 597.251C3111.57 597.251 3111.29 597.19 3111.02 597.068C3110.75 596.946 3110.52 596.76 3110.35 596.51C3110.17 596.26 3110.08 595.944 3110.08 595.564V589.052ZM3116.84 590.621V591.473H3113.45V590.621H3116.84ZM3114.44 589.052H3115.45V595.291C3115.45 595.575 3115.49 595.788 3115.57 595.93C3115.65 596.069 3115.76 596.163 3115.89 596.211C3116.03 596.257 3116.17 596.28 3116.32 596.28C3116.43 596.28 3116.52 596.274 3116.59 596.263C3116.66 596.248 3116.72 596.237 3116.76 596.229L3116.96 597.132C3116.89 597.157 3116.8 597.183 3116.68 597.209C3116.56 597.237 3116.4 597.251 3116.21 597.251C3115.93 597.251 3115.65 597.19 3115.38 597.068C3115.11 596.946 3114.88 596.76 3114.7 596.51C3114.53 596.26 3114.44 595.944 3114.44 595.564V589.052ZM3118.36 599.621V590.621H3119.33V591.66H3119.45C3119.52 591.547 3119.62 591.402 3119.75 591.226C3119.89 591.047 3120.08 590.888 3120.33 590.748C3120.58 590.606 3120.91 590.535 3121.34 590.535C3121.89 590.535 3122.38 590.673 3122.8 590.949C3123.22 591.224 3123.55 591.615 3123.78 592.121C3124.02 592.626 3124.13 593.223 3124.13 593.91C3124.13 594.604 3124.02 595.204 3123.78 595.713C3123.55 596.219 3123.22 596.611 3122.8 596.889C3122.38 597.165 3121.9 597.302 3121.36 597.302C3120.94 597.302 3120.6 597.233 3120.35 597.094C3120.09 596.952 3119.9 596.791 3119.76 596.612C3119.63 596.43 3119.52 596.28 3119.45 596.16H3119.36V599.621H3118.36ZM3119.35 593.893C3119.35 594.388 3119.42 594.824 3119.56 595.202C3119.71 595.577 3119.92 595.871 3120.2 596.084C3120.48 596.294 3120.82 596.399 3121.22 596.399C3121.64 596.399 3121.99 596.288 3122.27 596.067C3122.56 595.842 3122.77 595.541 3122.91 595.163C3123.06 594.782 3123.13 594.359 3123.13 593.893C3123.13 593.433 3123.06 593.018 3122.92 592.649C3122.78 592.277 3122.57 591.983 3122.28 591.767C3122 591.548 3121.65 591.439 3121.22 591.439C3120.81 591.439 3120.47 591.542 3120.19 591.75C3119.91 591.954 3119.7 592.241 3119.56 592.611C3119.42 592.977 3119.35 593.405 3119.35 593.893ZM3130.31 592.086L3129.4 592.342C3129.35 592.192 3129.26 592.045 3129.15 591.903C3129.04 591.758 3128.89 591.639 3128.71 591.545C3128.52 591.452 3128.28 591.405 3127.99 591.405C3127.59 591.405 3127.25 591.497 3126.99 591.682C3126.72 591.863 3126.59 592.095 3126.59 592.376C3126.59 592.626 3126.68 592.824 3126.86 592.969C3127.04 593.113 3127.33 593.234 3127.71 593.331L3128.69 593.569C3129.27 593.711 3129.71 593.929 3129.99 594.221C3130.28 594.511 3130.42 594.885 3130.42 595.342C3130.42 595.717 3130.32 596.052 3130.1 596.348C3129.89 596.643 3129.59 596.876 3129.21 597.047C3128.82 597.217 3128.38 597.302 3127.87 597.302C3127.2 597.302 3126.65 597.157 3126.21 596.868C3125.77 596.578 3125.5 596.155 3125.38 595.598L3126.33 595.359C3126.42 595.711 3126.6 595.976 3126.85 596.152C3127.11 596.328 3127.44 596.416 3127.85 596.416C3128.32 596.416 3128.69 596.317 3128.97 596.118C3129.25 595.916 3129.38 595.675 3129.38 595.393C3129.38 595.166 3129.31 594.976 3129.15 594.822C3128.99 594.666 3128.74 594.55 3128.41 594.473L3127.32 594.217C3126.72 594.075 3126.28 593.855 3126 593.557C3125.72 593.256 3125.58 592.879 3125.58 592.427C3125.58 592.058 3125.69 591.731 3125.89 591.447C3126.11 591.163 3126.39 590.94 3126.75 590.778C3127.12 590.616 3127.53 590.535 3127.99 590.535C3128.63 590.535 3129.14 590.677 3129.51 590.961C3129.88 591.246 3130.15 591.621 3130.31 592.086ZM3132.67 597.234C3132.46 597.234 3132.28 597.159 3132.13 597.008C3131.98 596.858 3131.9 596.677 3131.9 596.467C3131.9 596.257 3131.98 596.077 3132.13 595.926C3132.28 595.775 3132.46 595.7 3132.67 595.7C3132.88 595.7 3133.06 595.775 3133.21 595.926C3133.36 596.077 3133.44 596.257 3133.44 596.467C3133.44 596.606 3133.4 596.734 3133.33 596.851C3133.26 596.967 3133.17 597.061 3133.05 597.132C3132.94 597.2 3132.81 597.234 3132.67 597.234ZM3132.67 592.376C3132.46 592.376 3132.28 592.301 3132.13 592.15C3131.98 592 3131.9 591.819 3131.9 591.609C3131.9 591.399 3131.98 591.219 3132.13 591.068C3132.28 590.917 3132.46 590.842 3132.67 590.842C3132.88 590.842 3133.06 590.917 3133.21 591.068C3133.36 591.219 3133.44 591.399 3133.44 591.609C3133.44 591.748 3133.4 591.876 3133.33 591.993C3133.26 592.109 3133.17 592.203 3133.05 592.274C3132.94 592.342 3132.81 592.376 3132.67 592.376ZM3138.33 588.03L3135.52 598.479H3134.6L3137.41 588.03H3138.33ZM3142.61 588.03L3139.79 598.479H3138.87L3141.69 588.03H3142.61ZM3143.93 597.166V588.439H3144.94V591.66H3145.03C3145.1 591.547 3145.2 591.402 3145.33 591.226C3145.47 591.047 3145.66 590.888 3145.9 590.748C3146.15 590.606 3146.49 590.535 3146.92 590.535C3147.47 590.535 3147.95 590.673 3148.37 590.949C3148.8 591.224 3149.12 591.615 3149.36 592.121C3149.59 592.626 3149.71 593.223 3149.71 593.91C3149.71 594.604 3149.59 595.204 3149.36 595.713C3149.12 596.219 3148.8 596.611 3148.38 596.889C3147.96 597.165 3147.48 597.302 3146.93 597.302C3146.51 597.302 3146.18 597.233 3145.92 597.094C3145.67 596.952 3145.48 596.791 3145.34 596.612C3145.2 596.43 3145.1 596.28 3145.03 596.16H3144.91V597.166H3143.93ZM3144.92 593.893C3144.92 594.388 3145 594.824 3145.14 595.202C3145.29 595.577 3145.5 595.871 3145.78 596.084C3146.05 596.294 3146.39 596.399 3146.8 596.399C3147.22 596.399 3147.57 596.288 3147.85 596.067C3148.13 595.842 3148.35 595.541 3148.49 595.163C3148.63 594.782 3148.71 594.359 3148.71 593.893C3148.71 593.433 3148.64 593.018 3148.49 592.649C3148.35 592.277 3148.14 591.983 3147.86 591.767C3147.58 591.548 3147.22 591.439 3146.8 591.439C3146.39 591.439 3146.05 591.542 3145.77 591.75C3145.49 591.954 3145.28 592.241 3145.14 592.611C3144.99 592.977 3144.92 593.405 3144.92 593.893ZM3152.26 588.439V597.166H3151.25V588.439H3152.26ZM3156.76 597.302C3156.17 597.302 3155.65 597.162 3155.2 596.881C3154.76 596.599 3154.41 596.206 3154.16 595.7C3153.92 595.194 3153.79 594.604 3153.79 593.927C3153.79 593.246 3153.92 592.65 3154.16 592.142C3154.41 591.633 3154.76 591.238 3155.2 590.957C3155.65 590.676 3156.17 590.535 3156.76 590.535C3157.35 590.535 3157.87 590.676 3158.31 590.957C3158.75 591.238 3159.1 591.633 3159.35 592.142C3159.6 592.65 3159.72 593.246 3159.72 593.927C3159.72 594.604 3159.6 595.194 3159.35 595.7C3159.1 596.206 3158.75 596.599 3158.31 596.881C3157.87 597.162 3157.35 597.302 3156.76 597.302ZM3156.76 596.399C3157.21 596.399 3157.58 596.284 3157.87 596.054C3158.16 595.824 3158.37 595.521 3158.51 595.146C3158.65 594.771 3158.72 594.365 3158.72 593.927C3158.72 593.49 3158.65 593.082 3158.51 592.704C3158.37 592.327 3158.16 592.021 3157.87 591.788C3157.58 591.555 3157.21 591.439 3156.76 591.439C3156.31 591.439 3155.94 591.555 3155.65 591.788C3155.36 592.021 3155.15 592.327 3155.01 592.704C3154.87 593.082 3154.8 593.49 3154.8 593.927C3154.8 594.365 3154.87 594.771 3155.01 595.146C3155.15 595.521 3155.36 595.824 3155.65 596.054C3155.94 596.284 3156.31 596.399 3156.76 596.399ZM3163.92 597.302C3163.3 597.302 3162.78 597.157 3162.33 596.868C3161.89 596.578 3161.55 596.179 3161.31 595.67C3161.07 595.162 3160.95 594.581 3160.95 593.927C3160.95 593.263 3161.07 592.676 3161.32 592.167C3161.57 591.656 3161.91 591.257 3162.35 590.97C3162.79 590.68 3163.31 590.535 3163.9 590.535C3164.36 590.535 3164.78 590.621 3165.15 590.791C3165.51 590.961 3165.82 591.2 3166.05 591.507C3166.29 591.814 3166.43 592.172 3166.49 592.581H3165.49C3165.41 592.282 3165.24 592.018 3164.97 591.788C3164.71 591.555 3164.36 591.439 3163.92 591.439C3163.53 591.439 3163.18 591.541 3162.89 591.746C3162.59 591.947 3162.37 592.233 3162.2 592.602C3162.04 592.969 3161.96 593.399 3161.96 593.893C3161.96 594.399 3162.04 594.839 3162.2 595.214C3162.36 595.589 3162.59 595.881 3162.88 596.088C3163.17 596.295 3163.52 596.399 3163.92 596.399C3164.18 596.399 3164.42 596.354 3164.63 596.263C3164.84 596.172 3165.02 596.041 3165.17 595.871C3165.32 595.7 3165.42 595.496 3165.49 595.257H3166.49C3166.43 595.643 3166.29 595.991 3166.07 596.301C3165.85 596.608 3165.55 596.852 3165.19 597.034C3164.82 597.213 3164.4 597.302 3163.92 597.302ZM3168.9 594.78L3168.88 593.535H3169.09L3171.95 590.621H3173.19L3170.14 593.706H3170.06L3168.9 594.78ZM3167.96 597.166V588.439H3168.97V597.166H3167.96ZM3172.12 597.166L3169.56 593.927L3170.28 593.229L3173.4 597.166H3172.12ZM3175.49 588.439V597.166H3174.49V588.439H3175.49ZM3177.98 599.621C3177.81 599.621 3177.66 599.606 3177.53 599.578C3177.4 599.552 3177.3 599.527 3177.25 599.501L3177.51 598.615C3177.75 598.677 3177.97 598.7 3178.16 598.683C3178.34 598.666 3178.51 598.582 3178.65 598.432C3178.8 598.284 3178.94 598.044 3179.06 597.711L3179.25 597.2L3176.83 590.621H3177.92L3179.72 595.836H3179.79L3181.6 590.621H3182.69L3179.91 598.121C3179.79 598.459 3179.63 598.738 3179.45 598.96C3179.26 599.184 3179.05 599.351 3178.8 599.459C3178.56 599.567 3178.29 599.621 3177.98 599.621ZM3184.34 597.234C3184.13 597.234 3183.95 597.159 3183.8 597.008C3183.65 596.858 3183.57 596.677 3183.57 596.467C3183.57 596.257 3183.65 596.077 3183.8 595.926C3183.95 595.775 3184.13 595.7 3184.34 595.7C3184.55 595.7 3184.73 595.775 3184.88 595.926C3185.03 596.077 3185.11 596.257 3185.11 596.467C3185.11 596.606 3185.07 596.734 3185 596.851C3184.93 596.967 3184.84 597.061 3184.72 597.132C3184.61 597.2 3184.48 597.234 3184.34 597.234ZM3189.55 599.757C3189.07 599.757 3188.65 599.694 3188.3 599.569C3187.95 599.447 3187.66 599.285 3187.43 599.084C3187.2 598.885 3187.01 598.672 3186.88 598.444L3187.68 597.882C3187.77 598.001 3187.88 598.138 3188.02 598.291C3188.16 598.447 3188.35 598.582 3188.59 598.696C3188.84 598.812 3189.16 598.871 3189.55 598.871C3190.08 598.871 3190.52 598.743 3190.86 598.487C3191.21 598.231 3191.38 597.831 3191.38 597.285V595.956H3191.29C3191.22 596.075 3191.11 596.223 3190.98 596.399C3190.84 596.572 3190.65 596.727 3190.4 596.863C3190.15 596.997 3189.81 597.064 3189.38 597.064C3188.85 597.064 3188.38 596.939 3187.96 596.689C3187.54 596.439 3187.21 596.075 3186.97 595.598C3186.73 595.121 3186.6 594.541 3186.6 593.859C3186.6 593.189 3186.72 592.605 3186.96 592.108C3187.19 591.608 3187.52 591.221 3187.94 590.949C3188.36 590.673 3188.85 590.535 3189.4 590.535C3189.83 590.535 3190.16 590.606 3190.41 590.748C3190.67 590.888 3190.86 591.047 3190.99 591.226C3191.13 591.402 3191.24 591.547 3191.31 591.66H3191.41V590.621H3192.38V597.354C3192.38 597.916 3192.25 598.373 3192 598.726C3191.75 599.081 3191.41 599.341 3190.98 599.506C3190.55 599.673 3190.08 599.757 3189.55 599.757ZM3189.52 596.16C3189.92 596.16 3190.26 596.068 3190.54 595.883C3190.82 595.699 3191.03 595.433 3191.18 595.086C3191.32 594.74 3191.39 594.325 3191.39 593.842C3191.39 593.371 3191.32 592.954 3191.18 592.594C3191.04 592.233 3190.83 591.95 3190.55 591.746C3190.27 591.541 3189.93 591.439 3189.52 591.439C3189.09 591.439 3188.74 591.547 3188.45 591.763C3188.17 591.979 3187.96 592.268 3187.82 592.632C3187.68 592.996 3187.61 593.399 3187.61 593.842C3187.61 594.297 3187.68 594.699 3187.82 595.048C3187.97 595.395 3188.18 595.667 3188.46 595.866C3188.75 596.062 3189.1 596.16 3189.52 596.16ZM3196.15 597.319C3195.74 597.319 3195.36 597.241 3195.02 597.085C3194.68 596.926 3194.41 596.697 3194.22 596.399C3194.02 596.098 3193.92 595.734 3193.92 595.308C3193.92 594.933 3193.99 594.629 3194.14 594.396C3194.29 594.16 3194.48 593.976 3194.73 593.842C3194.98 593.709 3195.25 593.609 3195.55 593.544C3195.85 593.476 3196.15 593.422 3196.46 593.382C3196.85 593.331 3197.18 593.292 3197.42 593.267C3197.67 593.238 3197.86 593.192 3197.97 593.126C3198.09 593.061 3198.14 592.947 3198.14 592.785V592.751C3198.14 592.331 3198.03 592.004 3197.8 591.771C3197.57 591.538 3197.23 591.422 3196.76 591.422C3196.28 591.422 3195.91 591.527 3195.63 591.737C3195.36 591.947 3195.17 592.172 3195.06 592.41L3194.1 592.069C3194.27 591.672 3194.5 591.362 3194.79 591.14C3195.07 590.916 3195.39 590.76 3195.72 590.672C3196.06 590.581 3196.4 590.535 3196.73 590.535C3196.94 590.535 3197.18 590.561 3197.45 590.612C3197.73 590.66 3197.99 590.761 3198.25 590.915C3198.51 591.068 3198.72 591.3 3198.89 591.609C3199.06 591.919 3199.15 592.334 3199.15 592.854V597.166H3198.14V596.28H3198.09C3198.02 596.422 3197.91 596.574 3197.75 596.736C3197.59 596.898 3197.38 597.035 3197.12 597.149C3196.85 597.263 3196.53 597.319 3196.15 597.319ZM3196.3 596.416C3196.7 596.416 3197.04 596.338 3197.31 596.182C3197.58 596.025 3197.79 595.824 3197.93 595.577C3198.07 595.329 3198.14 595.069 3198.14 594.797V593.876C3198.1 593.927 3198.01 593.974 3197.86 594.017C3197.72 594.057 3197.56 594.092 3197.37 594.123C3197.18 594.152 3197 594.177 3196.83 594.2C3196.65 594.22 3196.51 594.237 3196.41 594.251C3196.14 594.285 3195.9 594.341 3195.67 594.417C3195.45 594.491 3195.27 594.604 3195.13 594.754C3194.99 594.902 3194.92 595.104 3194.92 595.359C3194.92 595.709 3195.05 595.973 3195.31 596.152C3195.57 596.328 3195.9 596.416 3196.3 596.416ZM3200.99 597.166V590.621H3201.96V591.643H3202.04C3202.18 591.294 3202.4 591.023 3202.7 590.829C3203.01 590.633 3203.37 590.535 3203.8 590.535C3204.23 590.535 3204.59 590.633 3204.88 590.829C3205.17 591.023 3205.39 591.294 3205.55 591.643H3205.62C3205.79 591.305 3206.04 591.037 3206.38 590.838C3206.71 590.636 3207.11 590.535 3207.58 590.535C3208.17 590.535 3208.65 590.719 3209.02 591.085C3209.39 591.449 3209.58 592.015 3209.58 592.785V597.166H3208.57V592.785C3208.57 592.302 3208.44 591.957 3208.17 591.75C3207.91 591.542 3207.6 591.439 3207.24 591.439C3206.78 591.439 3206.42 591.578 3206.17 591.856C3205.92 592.132 3205.79 592.481 3205.79 592.905V597.166H3204.77V592.683C3204.77 592.311 3204.65 592.011 3204.41 591.784C3204.17 591.554 3203.85 591.439 3203.47 591.439C3203.21 591.439 3202.97 591.508 3202.74 591.648C3202.52 591.787 3202.33 591.98 3202.2 592.227C3202.06 592.471 3201.99 592.754 3201.99 593.075V597.166H3200.99ZM3214.16 597.302C3213.53 597.302 3212.98 597.163 3212.53 596.885C3212.07 596.604 3211.72 596.211 3211.47 595.709C3211.23 595.203 3211.11 594.615 3211.11 593.944C3211.11 593.274 3211.23 592.683 3211.47 592.172C3211.72 591.657 3212.07 591.257 3212.51 590.97C3212.95 590.68 3213.47 590.535 3214.06 590.535C3214.4 590.535 3214.73 590.592 3215.07 590.706C3215.4 590.819 3215.7 591.004 3215.97 591.26C3216.25 591.513 3216.46 591.848 3216.63 592.265C3216.79 592.683 3216.87 593.197 3216.87 593.808V594.234H3211.82V593.365H3215.85C3215.85 592.996 3215.77 592.666 3215.63 592.376C3215.48 592.086 3215.27 591.858 3215 591.69C3214.74 591.523 3214.42 591.439 3214.06 591.439C3213.66 591.439 3213.31 591.538 3213.02 591.737C3212.73 591.933 3212.5 592.189 3212.35 592.504C3212.19 592.819 3212.11 593.157 3212.11 593.518V594.098C3212.11 594.592 3212.2 595.011 3212.37 595.355C3212.54 595.696 3212.78 595.956 3213.09 596.135C3213.4 596.311 3213.75 596.399 3214.16 596.399C3214.42 596.399 3214.66 596.362 3214.88 596.288C3215.09 596.211 3215.28 596.098 3215.43 595.947C3215.59 595.794 3215.71 595.604 3215.8 595.376L3216.77 595.649C3216.67 595.979 3216.49 596.268 3216.25 596.518C3216.01 596.765 3215.71 596.959 3215.36 597.098C3215 597.234 3214.6 597.302 3214.16 597.302ZM3223.04 592.086L3222.13 592.342C3222.08 592.192 3221.99 592.045 3221.88 591.903C3221.77 591.758 3221.63 591.639 3221.44 591.545C3221.25 591.452 3221.01 591.405 3220.72 591.405C3220.32 591.405 3219.98 591.497 3219.72 591.682C3219.45 591.863 3219.32 592.095 3219.32 592.376C3219.32 592.626 3219.41 592.824 3219.59 592.969C3219.77 593.113 3220.06 593.234 3220.44 593.331L3221.42 593.569C3222 593.711 3222.44 593.929 3222.72 594.221C3223.01 594.511 3223.16 594.885 3223.16 595.342C3223.16 595.717 3223.05 596.052 3222.83 596.348C3222.62 596.643 3222.32 596.876 3221.94 597.047C3221.55 597.217 3221.11 597.302 3220.6 597.302C3219.93 597.302 3219.38 597.157 3218.94 596.868C3218.5 596.578 3218.23 596.155 3218.11 595.598L3219.06 595.359C3219.16 595.711 3219.33 595.976 3219.58 596.152C3219.84 596.328 3220.17 596.416 3220.58 596.416C3221.05 596.416 3221.42 596.317 3221.7 596.118C3221.98 595.916 3222.12 595.675 3222.12 595.393C3222.12 595.166 3222.04 594.976 3221.88 594.822C3221.72 594.666 3221.47 594.55 3221.14 594.473L3220.05 594.217C3219.45 594.075 3219.01 593.855 3218.73 593.557C3218.45 593.256 3218.31 592.879 3218.31 592.427C3218.31 592.058 3218.42 591.731 3218.63 591.447C3218.84 591.163 3219.12 590.94 3219.48 590.778C3219.85 590.616 3220.26 590.535 3220.72 590.535C3221.37 590.535 3221.87 590.677 3222.24 590.961C3222.62 591.246 3222.88 591.621 3223.04 592.086ZM3227.75 588.03L3224.94 598.479H3224.02L3226.83 588.03H3227.75Z" fill="black"/>
<g clip-path="url(#clip0_19817_26)">
<path d="M898.372 1184.02H520.948C513.206 1184.02 507.4 1180.15 501.593 1176.28C495.787 1170.47 493.851 1162.73 493.851 1154.99C493.851 1137.57 493.851 1120.15 493.851 1102.73V1040.79C493.851 1007.89 493.851 974.984 493.851 942.08C493.851 934.338 489.98 928.532 484.174 924.661C383.527 862.724 313.849 762.078 290.623 647.883C267.397 547.237 282.881 440.784 333.204 349.815C352.559 309.17 379.656 272.395 412.56 241.427C509.335 146.587 644.82 107.877 776.435 134.974C836.436 144.652 892.565 169.813 940.953 204.652C1026.12 266.589 1062.89 355.622 1088.05 434.978C1099.66 473.688 1179.02 680.787 1194.5 709.819C1202.25 723.368 1204.18 738.852 1198.38 754.336C1192.57 764.014 1182.89 769.82 1171.28 769.82H1124.83C1115.15 769.82 1107.41 779.498 1107.41 789.175C1107.41 816.272 1107.41 845.305 1107.41 872.402V918.854C1107.41 924.661 1107.41 930.467 1107.41 936.274C1107.41 965.306 1084.18 990.468 1055.15 990.468C1053.21 990.468 1053.21 990.468 1051.28 990.468H940.953C937.082 990.468 931.275 990.468 927.404 992.403C925.469 996.274 923.533 1002.08 923.533 1005.95V1156.92C925.469 1170.47 913.856 1184.02 898.372 1184.02ZM532.561 1143.37H886.759V1004.02C884.823 988.532 890.63 973.048 902.243 961.435C913.856 951.758 927.404 945.951 942.888 947.887H1051.28C1060.95 947.887 1066.76 945.951 1066.76 930.467C1066.76 926.596 1066.76 920.79 1066.76 916.919V870.467C1066.76 843.369 1066.76 814.337 1066.76 787.24C1066.76 756.272 1091.92 729.175 1122.89 729.175H1157.73C1138.37 690.464 1059.02 481.43 1049.34 446.591C1026.12 369.17 993.212 289.815 917.727 235.62C873.21 204.652 822.887 183.362 768.693 173.684C648.692 148.523 524.819 185.297 437.721 270.46C408.689 297.557 383.527 330.46 366.108 367.235C321.591 450.462 308.042 547.237 327.398 640.141C348.688 744.659 412.56 835.627 503.529 891.757C520.948 901.435 532.561 920.79 530.626 942.08C530.626 974.984 530.626 1007.89 530.626 1038.86V1100.79C532.561 1116.28 532.561 1129.82 532.561 1143.37Z" fill="#202C47"/>
<path d="M532.561 1143.37H886.759V1004.02C884.823 988.532 890.63 973.048 902.243 961.435C913.856 951.758 927.404 945.951 942.888 947.887H1051.28C1060.95 947.887 1066.76 945.951 1066.76 930.467V916.919V870.467V787.24C1066.76 756.272 1091.92 729.175 1122.89 729.175H1157.73C1138.37 690.464 1059.02 481.43 1049.34 446.591C1026.12 369.17 993.212 289.815 917.727 235.62C873.21 204.652 822.887 183.362 768.693 173.684C648.692 148.523 524.819 185.297 437.721 270.46C408.689 297.557 383.527 330.46 366.108 367.235C321.591 450.462 308.042 547.237 327.398 640.141C348.688 744.659 412.56 835.627 503.529 891.757C520.948 901.435 532.561 920.79 530.626 942.08V1038.86V1100.79C532.561 1116.28 532.561 1129.82 532.561 1143.37Z" fill="white"/>
<path opacity="0.95" d="M313.645 848.734C430.161 848.734 524.616 754.28 524.616 637.764C524.616 521.249 430.161 426.794 313.645 426.794C197.13 426.794 102.675 521.249 102.675 637.764C102.675 754.28 197.13 848.734 313.645 848.734Z" fill="#3565A3"/>
<path opacity="0.95" d="M828.491 484.858C910.8 484.858 977.525 418.133 977.525 335.824C977.525 253.515 910.8 186.79 828.491 186.79C746.182 186.79 679.457 253.515 679.457 335.824C679.457 418.133 746.182 484.858 828.491 484.858Z" fill="#F6B542"/>
<path opacity="0.95" d="M545.908 728.733C746.871 728.733 909.784 565.82 909.784 364.858C909.784 163.895 746.871 0.982422 545.908 0.982422C344.946 0.982422 182.033 163.895 182.033 364.858C182.033 565.82 344.946 728.733 545.908 728.733Z" fill="#DE6139"/>
<path d="M898.17 1183.58H520.746C513.004 1183.58 507.197 1179.71 501.391 1175.83C495.584 1170.03 493.649 1162.29 493.649 1154.54C493.649 1137.12 493.649 1119.7 493.649 1102.28V1040.35C493.649 1007.45 493.649 974.541 493.649 941.638C493.649 933.896 489.778 928.089 483.971 924.218C383.325 862.282 313.647 761.636 290.421 647.441C267.195 546.795 282.679 440.342 333.002 349.373C352.357 308.727 379.454 271.953 412.358 240.985C509.133 146.145 644.618 107.435 776.233 134.532C836.233 144.209 892.363 169.371 940.751 204.21C1025.91 266.146 1062.69 355.179 1087.85 434.535C1099.46 473.245 1178.82 680.344 1194.3 709.377C1202.04 722.926 1203.98 738.41 1198.17 753.894C1192.37 763.571 1182.69 769.378 1171.08 769.378H1124.62C1114.95 769.378 1107.2 779.055 1107.2 788.733C1107.2 815.83 1107.2 844.863 1107.2 871.96V918.412C1107.2 924.218 1107.2 930.025 1107.2 935.831C1107.2 964.864 1083.98 990.025 1054.95 990.025C1053.01 990.025 1053.01 990.025 1051.07 990.025H940.751C936.88 990.025 931.073 990.026 927.202 991.961C925.267 995.832 923.331 1001.64 923.331 1005.51V1156.48C925.267 1170.03 913.654 1183.58 898.17 1183.58ZM532.359 1142.93H886.557V1003.57C884.621 988.09 890.428 972.606 902.041 960.993C913.654 951.315 927.202 945.509 942.686 947.444H1051.07C1060.75 947.444 1066.56 945.509 1066.56 930.025C1066.56 926.154 1066.56 920.347 1066.56 916.476V870.024C1066.56 842.927 1066.56 813.894 1066.56 786.797C1066.56 755.829 1091.72 728.732 1122.69 728.732H1157.53C1138.17 690.022 1058.82 480.987 1049.14 446.148C1025.91 368.728 993.009 289.372 917.525 235.178C873.008 204.21 822.685 182.919 768.491 173.242C648.489 148.08 524.617 184.855 437.519 270.017C408.487 297.114 383.325 330.018 365.905 366.793C321.389 450.019 307.84 546.795 327.195 639.699C348.486 744.216 412.358 835.185 503.326 891.315C520.746 900.992 532.359 920.347 530.424 941.638C530.424 974.541 530.424 1007.45 530.424 1038.41V1100.35C532.359 1115.83 532.359 1129.38 532.359 1142.93Z" fill="#202C47"/>
</g>
<path d="M1331.52 554.126V201.357H1477.65V554.126C1477.65 626.451 1511.6 666.303 1582.45 666.303C1653.3 666.303 1690.2 626.451 1690.2 554.126V201.357H1831.89V554.126C1831.89 704.679 1743.33 802.097 1583.92 802.097C1421.56 800.621 1331.52 706.155 1331.52 554.126Z" fill="#202C47"/>
<path d="M1920.46 571.838C1920.46 422.76 2020.83 334.199 2156.62 334.199C2298.32 334.199 2397.21 430.14 2397.21 573.314C2397.21 728.296 2282.08 802.097 2181.71 802.097C2133 805.049 2085.77 781.433 2056.25 741.58V979.219H1921.93L1920.46 571.838ZM2259.94 567.41C2259.94 503.941 2218.61 459.661 2158.1 459.661C2097.58 459.661 2056.25 503.941 2056.25 567.41C2056.25 630.879 2097.58 675.159 2158.1 675.159C2218.61 675.159 2261.42 630.879 2259.94 567.41Z" fill="#202C47"/>
<path d="M2484.3 201.357H2763.26C2878.39 201.357 2935.96 266.302 2935.96 356.339C2938.91 408 2910.87 458.184 2865.11 483.277V484.753C2925.63 505.417 2965.48 564.458 2962.53 627.926C2962.53 720.916 2904.96 788.812 2786.88 788.812H2484.3V201.357ZM2738.17 433.092C2776.55 433.092 2791.31 410.952 2791.31 385.86C2791.31 360.767 2780.98 337.151 2738.17 337.151H2628.95V433.092H2738.17ZM2757.36 654.495C2800.16 654.495 2813.45 630.878 2813.45 602.834C2814.92 574.79 2792.78 551.174 2763.26 549.698C2760.31 549.698 2758.84 549.698 2755.88 549.698H2628.95V655.971L2757.36 654.495Z" fill="#202C47"/>
<path d="M3030.42 536.412C3030.42 397.666 3111.6 332.722 3229.68 332.722C3347.77 332.722 3427.47 396.19 3428.95 536.412V539.364H3294.63V536.412C3294.63 477.371 3268.06 459.659 3229.68 459.659C3191.31 459.659 3164.74 477.371 3164.74 536.412V788.811H3030.42V536.412Z" fill="#202C47"/>
<path d="M3465.85 573.314C3465.85 430.14 3564.74 334.199 3706.44 334.199C3848.14 334.199 3942.6 427.188 3942.6 571.838V788.813H3818.62V715.012C3795 769.624 3744.82 800.621 3681.35 800.621C3580.98 800.621 3465.85 726.82 3465.85 573.314ZM3806.81 567.41C3806.81 503.941 3765.48 459.661 3704.96 459.661C3644.45 459.661 3603.12 503.941 3603.12 567.41C3603.12 630.879 3644.45 675.159 3704.96 675.159C3765.48 675.159 3806.81 630.879 3806.81 567.41Z" fill="#202C47"/>
<path d="M4178.76 346.004V790.285H4044.45V480.322C4044.45 406.521 4104.96 346.004 4178.76 346.004Z" fill="#202C47"/>
<path d="M4282.09 558.552C4282.09 409.475 4370.65 332.722 4502.01 332.722C4633.38 332.722 4721.94 407.999 4721.94 558.552V788.811H4587.62V558.552C4587.62 487.704 4553.67 458.183 4503.49 458.183C4453.3 458.183 4419.36 487.704 4419.36 558.552V788.811H4285.04L4282.09 558.552Z" fill="#202C47"/>
<path d="M4789.83 567.41C4789.83 433.092 4888.73 334.199 5028.95 334.199C5169.17 334.199 5265.11 433.092 5265.11 567.41V605.786H4930.06C4940.39 657.447 4980.24 681.063 5028.95 681.063C5067.33 681.063 5096.85 673.683 5113.08 648.591H5251.83C5222.31 740.104 5138.17 802.097 5027.47 802.097C4888.73 800.621 4789.83 701.728 4789.83 567.41ZM5127.84 520.177C5113.08 474.421 5076.18 453.757 5030.43 453.757C4984.67 453.757 4947.77 474.421 4934.48 520.177H5127.84Z" fill="#202C47"/>
<path d="M5335.96 536.412C5335.96 397.666 5417.14 332.722 5535.22 332.722C5653.31 332.722 5734.49 396.19 5734.49 536.412V539.364H5600.17V536.412C5600.17 477.371 5573.6 459.659 5535.22 459.659C5496.85 459.659 5470.28 477.371 5470.28 536.412V788.811H5335.96V536.412Z" fill="#202C47"/>
<path d="M5793.53 833.09H5927.84C5941.13 862.61 5964.74 874.418 6007.55 874.418C6066.59 874.418 6093.16 846.374 6093.16 778.477V734.197C6069.54 772.573 6026.74 794.713 5982.46 793.237C5889.47 793.237 5789.1 731.244 5789.1 568.883V346.004H5923.42V568.883C5923.42 639.731 5957.36 669.252 6007.55 669.252C6057.73 669.252 6091.68 638.255 6091.68 568.883V346.004H6227.48V775.525C6227.48 930.507 6128.58 992.499 6007.55 992.499C5902.75 991.023 5815.67 942.315 5793.53 833.09Z" fill="#202C47"/>
<path d="M4085.78 192.5H4075.44C4073.97 192.5 4073.97 192.5 4072.49 192.5C4065.11 192.5 4057.73 195.452 4050.35 199.88C4048.87 201.356 4047.4 201.356 4045.92 201.356C4035.59 201.356 4025.26 204.308 4016.4 208.736C4003.12 216.116 3992.79 229.4 3989.83 244.161C3989.83 245.637 3988.36 247.113 3988.36 247.113C3983.93 250.065 3980.98 254.493 3979.5 258.921C3978.03 263.349 3976.55 267.777 3975.07 272.205V282.537C3976.55 285.489 3976.55 288.441 3976.55 291.393C3979.5 304.677 3988.36 313.533 4001.64 317.961C4003.12 317.961 4004.59 319.438 4006.07 320.914C4010.5 328.294 4016.4 332.722 4023.78 335.674C4025.26 335.674 4026.73 338.626 4026.73 340.102C4026.73 341.578 4026.73 341.578 4026.73 343.054C4026.73 354.862 4025.26 366.67 4025.26 378.478C4025.26 381.43 4026.73 385.858 4031.16 385.858H4032.64H4042.97C4045.92 385.858 4048.87 384.382 4050.35 381.43L4056.25 365.194C4059.21 356.338 4063.63 347.482 4069.54 340.102C4075.44 332.722 4082.82 328.294 4091.68 328.294C4093.16 328.294 4094.63 328.294 4094.63 328.294C4104.96 326.818 4115.3 323.866 4122.68 316.485C4124.15 315.009 4127.1 313.533 4130.06 315.009C4138.91 316.485 4147.77 315.009 4156.62 313.533C4169.91 312.057 4181.72 303.201 4189.1 291.393C4192.05 285.489 4195 279.585 4196.48 273.681V264.825V263.349C4195 250.065 4186.14 236.781 4174.34 229.4C4169.91 226.448 4166.96 223.496 4164 219.068C4152.2 201.356 4131.53 192.5 4110.87 198.404C4107.92 199.88 4104.96 198.404 4102.01 196.928C4100.54 195.452 4097.58 193.976 4094.63 193.976C4093.16 193.976 4088.73 192.5 4085.78 192.5Z" fill="#F6B542"/>
<defs>
<clipPath id="clip0_19817_26">
<rect width="1100" height="1185" fill="white" transform="translate(102.525)"/>
</clipPath>
</defs>
</svg>
