<svg width="24" height="25" viewBox="0 0 24 25" fill="none" xmlns="http://www.w3.org/2000/svg">
<path d="M8.77964 13.4711C8.48734 13.7635 8.48734 14.2374 8.77964 14.5297V14.5297C9.07155 14.8216 9.54467 14.822 9.83714 14.5307L11.2504 13.1229V21.5004C11.2504 21.9146 11.5862 22.2504 12.0004 22.2504V22.2504C12.4146 22.2504 12.7504 21.9146 12.7504 21.5004V13.1229L14.1636 14.5307C14.4561 14.822 14.9292 14.8216 15.2211 14.5297V14.5297C15.5134 14.2374 15.5134 13.7635 15.2211 13.4711L12.0004 10.2504L8.77964 13.4711Z" fill="#20C0A0"/>
<path d="M18 17.0005V17.0005C17.586 17.0004 17.2504 16.6644 17.2504 16.2504V16.2504C17.2504 15.8364 17.586 15.5004 18 15.5005V15.5005C18.8951 15.5363 19.3932 15.215 20.0514 14.6074C20.7097 13.9997 21.0996 13.1555 21.1354 12.2604C21.1712 11.3653 20.8499 10.4926 20.2423 9.83438C19.6347 9.17613 18.7905 8.78621 17.8954 8.75041H17.2504L17.1754 8.13541C17.009 6.87275 16.3893 5.71362 15.4317 4.87395C14.4741 4.03428 13.244 3.57132 11.9704 3.57132C10.6968 3.57132 9.46664 4.03428 8.50906 4.87395C7.55148 5.71362 6.93177 6.87275 6.76538 8.13541L6.75038 8.75041H6.10538C5.21028 8.78621 4.36605 9.17613 3.75844 9.83438C3.15082 10.4926 2.82958 11.3653 2.86538 12.2604C2.90119 13.1555 3.2911 13.9997 3.94936 14.6074C4.60761 15.215 5.10489 15.5363 6 15.5005V15.5005C6.41424 15.5004 6.75038 15.8362 6.75038 16.2505V16.2505C6.75038 16.6647 6.41418 17.0004 6 17.0005V17.0005C4.7973 16.9929 4.01526 16.5409 3.12562 15.7315C2.23599 14.9221 1.67694 13.8124 1.55598 12.6158C1.43502 11.4192 1.76067 10.2201 2.47032 9.24905C3.17998 8.27801 4.22354 7.60357 5.40038 7.35541C5.72416 5.8453 6.55601 4.49189 7.75712 3.52101C8.95822 2.55013 10.4559 2.02051 12.0004 2.02051C13.5448 2.02051 15.0425 2.55013 16.2436 3.52101C17.4448 4.49189 18.2766 5.8453 18.6004 7.35541C19.7772 7.60357 20.8208 8.27801 21.5304 9.24905C22.2401 10.2201 22.5657 11.4192 22.4448 12.6158C22.3238 13.8124 21.7648 14.9221 20.8751 15.7315C19.9855 16.5409 19.2027 16.9929 18 17.0005Z" fill="#20C0A0"/>
</svg>
